<?xml version="1.0" encoding="UTF-8"?>
<svg width="58px" height="58px" viewBox="0 0 58 58" version="1.1" xmlns="http://www.w3.org/2000/svg" xmlns:xlink="http://www.w3.org/1999/xlink">
    <!-- Generator: sketchtool 59.1 (101010) - https://sketch.com -->
    <g id="full-site" stroke="none" stroke-width="1" fill="none" fill-rule="evenodd">
        <g id="Community-hub" transform="translate(-178.000000, -775.000000)" fill="#673D1A" fill-rule="nonzero">
            <g id="blog" transform="translate(178.000000, 775.000000)">
                <circle id="Oval" cx="4.8" cy="4.8" r="1"></circle>
                <circle id="Oval" cx="8.64" cy="4.8" r="1"></circle>
                <circle id="Oval" cx="12.48" cy="4.8" r="1"></circle>
                <path d="M21.12,3.84 C20.5898066,3.84 20.16,4.26980664 20.16,4.8 C20.16,5.33019336 20.5898066,5.76 21.12,5.76 L29.76,5.76 C30.2901934,5.76 30.72,5.33019336 30.72,4.8 C30.72,4.26980664 30.2901934,3.84 29.76,3.84 L21.12,3.84 Z" id="Path"></path>
                <path d="M35.52,3.84 C34.9898066,3.84 34.56,4.26980664 34.56,4.8 C34.56,5.33019336 34.9898066,5.76 35.52,5.76 L49.92,5.76 C50.4501934,5.76 50.88,5.33019336 50.88,4.8 C50.88,4.26980664 50.4501934,3.84 49.92,3.84 L35.52,3.84 Z" id="Path"></path>
                <path d="M56.64,32.64 C56.1098066,32.64 55.68,33.0698066 55.68,33.6 L55.68,55.68 L1.92,55.68 L1.92,21.12 C1.92,20.5898066 1.49019336,20.16 0.96,20.16 C0.42980664,20.16 0,20.5898066 0,21.12 L0,56.64 C0,57.1701934 0.42980664,57.6 0.96,57.6 L56.64,57.6 C57.1701934,57.6 57.6,57.1701934 57.6,56.64 L57.6,33.6 C57.6,33.0698066 57.1701934,32.64 56.64,32.64 Z" id="Path"></path>
                <path d="M56.64,0 L0.96,0 C0.42980664,0 0,0.42980664 0,0.96 L0,17.28 C0,17.8101934 0.42980664,18.24 0.96,18.24 C1.49019336,18.24 1.92,17.8101934 1.92,17.28 L1.92,9.6 L52.8,9.6 C53.3301934,9.6 53.76,9.17019336 53.76,8.64 C53.76,8.10980664 53.3301934,7.68 52.8,7.68 L17.28,7.68 L17.28,1.92 L55.68,1.92 L55.68,29.76 C55.68,30.2901934 56.1098066,30.72 56.64,30.72 C57.1701934,30.72 57.6,30.2901934 57.6,29.76 L57.6,0.96 C57.6,0.42980664 57.1701934,0 56.64,0 Z M15.36,7.68 L1.92,7.68 L1.92,1.92 L15.36,1.92 L15.36,7.68 Z" id="Shape"></path>
                <path d="M52.8,13.44 C52.8,12.9098066 52.3701934,12.48 51.84,12.48 L5.76,12.48 C5.22980664,12.48 4.8,12.9098066 4.8,13.44 L4.8,30.72 C4.8,31.2501934 5.22980664,31.68 5.76,31.68 L51.84,31.68 C52.3701934,31.68 52.8,31.2501934 52.8,30.72 L52.8,13.44 Z M43.2,15.36 C43.2,15.8901934 42.7701934,16.32 42.24,16.32 C41.7098066,16.32 41.28,15.8901934 41.28,15.36 C41.28,14.8298066 41.7098066,14.4 42.24,14.4 C42.7701934,14.4 43.2,14.8298066 43.2,15.36 Z M11.52,26.88 C10.9898066,26.88 10.56,26.4501934 10.56,25.92 C10.6381722,24.9195296 10.9684389,23.9551509 11.52,23.1168 C12.0715611,23.9551509 12.4018278,24.9195296 12.48,25.92 C12.48,26.4501934 12.0501934,26.88 11.52,26.88 Z M15.9552,29.76 L21.12,19.4304 L26.2848,29.76 L15.9552,29.76 Z M28.4352,29.76 L26.0352,24.96 L27.84,21.3504 L32.0448,29.76 L28.4352,29.76 Z M36.48,26.88 C35.9498066,26.88 35.52,26.4501934 35.52,25.92 C35.5981722,24.9195296 35.9284389,23.9551509 36.48,23.1168 C37.0315611,23.9551509 37.3618278,24.9195296 37.44,25.92 C37.44,26.4501934 37.0101934,26.88 36.48,26.88 Z M44.16,26.88 C43.6298066,26.88 43.2,26.4501934 43.2,25.92 C43.2781722,24.9195296 43.6084389,23.9551509 44.16,23.1168 C44.7115611,23.9551509 45.0418278,24.9195296 45.12,25.92 C45.12,26.4501934 44.6901934,26.88 44.16,26.88 Z M50.88,29.76 L45.12,29.76 L45.12,28.6272 C46.2678995,28.2213616 47.0365782,27.1375247 47.04,25.92 C47.04,24.8064 46.1376,21.12 44.16,21.12 C42.1824,21.12 41.28,24.8064 41.28,25.92 C41.2834218,27.1375247 42.0521005,28.2213616 43.2,28.6272 L43.2,29.76 L37.44,29.76 L37.44,28.6272 C38.5878995,28.2213616 39.3565782,27.1375247 39.36,25.92 C39.36,24.8064 38.4576,21.12 36.48,21.12 C34.5024,21.12 33.6,24.8064 33.6,25.92 C33.6034218,27.1375247 34.3721005,28.2213616 35.52,28.6272 L35.52,29.76 L34.1952,29.76 L28.6944,18.768 C28.5301479,18.4473924 28.2002332,18.2457221 27.84,18.2457221 C27.4797668,18.2457221 27.1498521,18.4473924 26.9856,18.768 L24.96,22.8096 L21.9744,16.848 C21.8101479,16.5273924 21.4802332,16.3257221 21.12,16.3257221 C20.7597668,16.3257221 20.4298521,16.5273924 20.2656,16.848 L13.8048,29.76 L12.48,29.76 L12.48,28.6272 C13.6278995,28.2213616 14.3965782,27.1375247 14.4,25.92 C14.4,24.8064 13.4976,21.12 11.52,21.12 C9.5424,21.12 8.64,24.8064 8.64,25.92 C8.64342179,27.1375247 9.41210045,28.2213616 10.56,28.6272 L10.56,29.76 L6.72,29.76 L6.72,14.4 L39.5328,14.4 C39.0988949,15.5954904 39.5005095,16.9340536 40.5208762,17.6932129 C41.5412429,18.4523722 42.9387571,18.4523722 43.9591238,17.6932129 C44.9794905,16.9340536 45.3811051,15.5954904 44.9472,14.4 L50.88,14.4 L50.88,29.76 Z" id="Shape"></path>
                <circle id="Oval" cx="37.44" cy="17.28" r="1"></circle>
                <circle id="Oval" cx="40.32" cy="20.16" r="1"></circle>
                <circle id="Oval" cx="46.08" cy="19.2" r="1"></circle>
                <path d="M26.88,34.56 L13.44,34.56 C12.9098066,34.56 12.48,34.9898066 12.48,35.52 C12.48,36.0501934 12.9098066,36.48 13.44,36.48 L26.88,36.48 C27.4101934,36.48 27.84,36.0501934 27.84,35.52 C27.84,34.9898066 27.4101934,34.56 26.88,34.56 Z" id="Path"></path>
                <path d="M26.88,38.4 L6.72,38.4 C6.18980664,38.4 5.76,38.8298066 5.76,39.36 C5.76,39.8901934 6.18980664,40.32 6.72,40.32 L26.88,40.32 C27.4101934,40.32 27.84,39.8901934 27.84,39.36 C27.84,38.8298066 27.4101934,38.4 26.88,38.4 Z" id="Path"></path>
                <path d="M26.88,42.24 L6.72,42.24 C6.18980664,42.24 5.76,42.6698066 5.76,43.2 C5.76,43.7301934 6.18980664,44.16 6.72,44.16 L26.88,44.16 C27.4101934,44.16 27.84,43.7301934 27.84,43.2 C27.84,42.6698066 27.4101934,42.24 26.88,42.24 Z" id="Path"></path>
                <path d="M26.88,46.08 L6.72,46.08 C6.18980664,46.08 5.76,46.5098066 5.76,47.04 C5.76,47.5701934 6.18980664,48 6.72,48 L26.88,48 C27.4101934,48 27.84,47.5701934 27.84,47.04 C27.84,46.5098066 27.4101934,46.08 26.88,46.08 Z" id="Path"></path>
                <path d="M26.88,49.92 L6.72,49.92 C6.18980664,49.92 5.76,50.3498066 5.76,50.88 C5.76,51.4101934 6.18980664,51.84 6.72,51.84 L26.88,51.84 C27.4101934,51.84 27.84,51.4101934 27.84,50.88 C27.84,50.3498066 27.4101934,49.92 26.88,49.92 Z" id="Path"></path>
                <path d="M30.72,44.16 L38.4,44.16 C38.9301934,44.16 39.36,43.7301934 39.36,43.2 L39.36,35.52 C39.36,34.9898066 38.9301934,34.56 38.4,34.56 L30.72,34.56 C30.1898066,34.56 29.76,34.9898066 29.76,35.52 L29.76,43.2 C29.76,43.7301934 30.1898066,44.16 30.72,44.16 Z M37.44,36.48 L37.44,42.24 L31.68,42.24 L31.68,40.32 L34.56,40.32 C35.0901934,40.32 35.52,39.8901934 35.52,39.36 C35.52,38.8298066 35.0901934,38.4 34.56,38.4 L31.68,38.4 L31.68,36.48 L37.44,36.48 Z" id="Shape"></path>
                <path d="M51.84,34.56 L44.16,34.56 C43.6298066,34.56 43.2,34.9898066 43.2,35.52 C43.2,36.0501934 43.6298066,36.48 44.16,36.48 L51.84,36.48 C52.3701934,36.48 52.8,36.0501934 52.8,35.52 C52.8,34.9898066 52.3701934,34.56 51.84,34.56 Z" id="Path"></path>
                <path d="M51.84,38.4 L42.24,38.4 C41.7098066,38.4 41.28,38.8298066 41.28,39.36 C41.28,39.8901934 41.7098066,40.32 42.24,40.32 L51.84,40.32 C52.3701934,40.32 52.8,39.8901934 52.8,39.36 C52.8,38.8298066 52.3701934,38.4 51.84,38.4 Z" id="Path"></path>
                <path d="M51.84,42.24 L42.24,42.24 C41.7098066,42.24 41.28,42.6698066 41.28,43.2 C41.28,43.7301934 41.7098066,44.16 42.24,44.16 L51.84,44.16 C52.3701934,44.16 52.8,43.7301934 52.8,43.2 C52.8,42.6698066 52.3701934,42.24 51.84,42.24 Z" id="Path"></path>
                <path d="M51.84,46.08 L30.72,46.08 C30.1898066,46.08 29.76,46.5098066 29.76,47.04 C29.76,47.5701934 30.1898066,48 30.72,48 L51.84,48 C52.3701934,48 52.8,47.5701934 52.8,47.04 C52.8,46.5098066 52.3701934,46.08 51.84,46.08 Z" id="Path"></path>
                <path d="M51.84,49.92 L30.72,49.92 C30.1898066,49.92 29.76,50.3498066 29.76,50.88 C29.76,51.4101934 30.1898066,51.84 30.72,51.84 L51.84,51.84 C52.3701934,51.84 52.8,51.4101934 52.8,50.88 C52.8,50.3498066 52.3701934,49.92 51.84,49.92 Z" id="Path"></path>
                <path d="M12.8832,16.4928 C11.7584912,15.9161424 10.3913069,16.1208338 9.4848,17.0016 C9.15861428,17.3824899 9.18054502,17.9502664 9.53513931,18.3048607 C9.8897336,18.659455 10.4575101,18.6813857 10.8384,18.3552 C11.0186559,18.1734599 11.264028,18.0712336 11.52,18.0712336 C11.775972,18.0712336 12.0213441,18.1734599 12.2016,18.3552 C12.3804102,18.5325544 12.6217537,18.6325396 12.8736,18.6336161 C13.1287709,18.6350753 13.3740299,18.5348991 13.5552,18.3552 C13.7354559,18.1734599 13.980828,18.0712336 14.2368,18.0712336 C14.492772,18.0712336 14.7381441,18.1734599 14.9184,18.3552 C15.0972102,18.5325544 15.3385537,18.6325396 15.5904,18.6336161 C15.8455709,18.6350753 16.0908299,18.5348991 16.272,18.3552 C16.6442147,17.980764 16.6442147,17.376036 16.272,17.0016 C15.3771573,16.1053138 14.0017945,15.8988146 12.8832,16.4928 L12.8832,16.4928 Z" id="Path"></path>
            </g>
        </g>
    </g>
</svg>
