<?xml version="1.0" encoding="UTF-8"?>
<svg width="36px" height="29px" viewBox="0 0 36 29" version="1.1" xmlns="http://www.w3.org/2000/svg" xmlns:xlink="http://www.w3.org/1999/xlink">
    <!-- Generator: sketchtool 59.1 (101010) - https://sketch.com -->
    <title>4A80F5C3-0CB3-459C-8783-7CD04F22CFD2</title>
    <desc>Created with sketchtool.</desc>
    <g id="full-site" stroke="none" stroke-width="1" fill="none" fill-rule="evenodd">
        <g id="Community-hub" transform="translate(-620.000000, -794.000000)" fill="#673D1A" fill-rule="nonzero">
            <g id="brand" transform="translate(620.000000, 794.000000)">
                <path d="M5.2734375,28.5 L30.7265625,28.5 C33.6343689,28.5 36,26.0844952 36,23.1153846 L36,5.88461538 C36,2.91550479 33.6343689,0.5 30.7265625,0.5 L5.2734375,0.5 C2.36563109,0.5 0,2.91550479 0,5.88461538 L0,23.1153846 C0,26.0844952 2.36563109,28.5 5.2734375,28.5 Z M2.109375,5.88461538 C2.109375,4.10320513 3.52880859,2.65384615 5.2734375,2.65384615 L30.7265625,2.65384615 C32.4711914,2.65384615 33.890625,4.10320513 33.890625,5.88461538 L33.890625,23.1153846 C33.890625,24.8967949 32.4711914,26.3461538 30.7265625,26.3461538 L5.2734375,26.3461538 C3.52880859,26.3461538 2.109375,24.8967949 2.109375,23.1153846 L2.109375,5.88461538 Z" id="Shape"></path>
                <path d="M12,7.5 L12,22.5 L25,14.8770068 L12,7.5 Z M14.1606648,11.2507185 L20.6066482,14.9086172 L14.1606648,18.6883597 L14.1606648,11.2507185 Z" id="Shape"></path>
            </g>
        </g>
    </g>
</svg>