<?xml version="1.0" encoding="UTF-8"?>
<svg width="186px" height="96px" viewBox="0 0 186 96" version="1.1" xmlns="http://www.w3.org/2000/svg" xmlns:xlink="http://www.w3.org/1999/xlink">
    <!-- Generator: sketchtool 59.1 (101010) - https://sketch.com -->
    <title>BF81065A-C4F2-4794-AD05-F6ACC1F3CD82</title>
    <desc>Created with sketchtool.</desc>
    <g id="full-site" stroke="none" stroke-width="1" fill="none" fill-rule="evenodd">
        <g id="About-New" transform="translate(-1615.000000, -24.000000)">
            <g id="Group" transform="translate(1615.000000, 24.000000)">
                <path d="M23.6260809,90.1748911 C24.263281,88.042971 24.820561,85.8980909 25.308721,83.7208108 C25.5638836,82.5321189 25.5587255,81.3022805 25.293601,80.1157707 C25.148881,79.5325707 25.077601,78.8197706 24.734161,78.3380906 C24.427441,77.9060906 24.045121,77.4460106 23.8550409,76.9535306 C21.4920009,73.9295305 17.2238407,72.5968104 13.4762405,72.7998504 C12.6122405,72.8452104 11.4069605,72.7588104 10.7071204,73.0871304 C9.75099946,73.5387814 8.90368776,74.1915798 8.22312033,75.0008905 C6.92712028,76.4956106 5.77152023,78.6577706 5.33520021,80.5952907 C4.80816019,82.9216108 3.77352015,85.1766509 3.58128014,87.604491 C3.48408014,88.833531 2.99808012,90.0064111 2.90304012,91.2484111 C2.81016011,92.4515312 2.5466401,93.7194512 2.35224009,94.9074513 C2.31768009,95.1234513 2.28312009,95.3394513 2.24640009,95.5554513 L22.7901609,95.5554513 C22.7901609,95.5554513 23.0882409,91.9676912 23.6260809,90.1748911 Z" id="Path" fill="#F68A33" fill-rule="nonzero"></path>
                <polyline id="Path" fill="#FBB161" points="14.8500006 82.3319308 14.7333606 82.1958508 14.4482406 82.0230508 14.2344006 81.8286508 14.0443206 81.7141708 13.7570405 81.5370508 13.3898405 81.3858507 13.0096805 81.1525707 12.5647205 81.0143307 12.1240805 80.8804107 11.5862405 80.6860107 11.3184004 80.5866507 11.0484004 80.4894507 10.7028004 80.4116907 10.3766404 80.4116907 10.1066404 80.3123307 9.76104039 80.2345707 9.43488037 80.2345707 9.03312036 80.2518507 8.73504035 82.0381708 8.91000035 82.0792108 9.34848037 82.2109708 9.67896038 82.2152908 10.0245604 82.2973708 10.3874404 82.4485708 10.8280804 82.5868108 11.2687204 82.7207308 11.7914405 82.8395308 12.2320805 82.9756108 12.6921605 83.1894508 13.2300005 83.3838508 13.6900805 83.5955308 14.0940006 83.9044108 14.4957606 84.2154509 14.8500006 82.3319308"></polyline>
                <polyline id="Path" fill="#659E42" points="14.8716006 71.7976104 15.4850406 62.66513 15.6146406 53.2432096 15.0573606 39.0109691 15.7183206 32.3992088 12.6144005 29.4076087 11.4588005 29.6905687 10.4241604 33.4576088 8.26632033 34.9652889 7.6010403 33.2524088 3.67416015 34.2179289 3.91176016 31.8743288 4.61376018 30.0685687 3.30912013 29.0836087 5.60736022 26.8026486 5.0414402 23.5129685 8.53632034 24.4504085 9.9748804 26.3015286 13.8736806 26.8933686 15.0422406 27.9949686 14.1998406 21.9145684 10.0677604 11.419128 6.11064024 10.5961679 4.17744017 8.70400786 6.05448024 5.71240774 5.52528022 2.90224763 8.60328034 2.47240761 9.59256038 0.513287536 12.1370405 4.21552768 14.7484806 4.5546477 12.9621605 9.5658479 15.8306406 17.9228882 18.6192007 27.9301686 18.3276007 38.371609 18.6883207 45.1410493 19.6905608 48.8929695 19.8612008 73.8323304 14.8716006 71.7976104"></polyline>
                <polyline id="Path" fill="#659E42" points="22.7404809 65.6156901 29.3328012 56.5674498 29.3911212 56.4702498 29.5250412 56.3536098 29.7583212 55.9712897 30.0088812 55.6645697 30.4516812 55.1483297 30.8188812 54.6472097 31.2638412 54.1309697 31.7088013 53.6125696 32.0544013 53.3641696 32.3071213 53.0574496 32.5598413 52.7507296 32.8276813 52.5217696 33.1732813 52.2733696 33.4476013 52.0422496 33.7176013 51.8132896 33.9854414 51.5843296 34.2576014 51.3532096 34.5276014 51.1264095 34.8148814 50.9708895 35.0460014 50.9147295 35.3354414 50.7635295 35.6421614 50.6857695 35.8732814 50.6296095 36.1238414 50.6512095 36.6033615 50.6144895 36.9511215 50.6922495 37.2168015 50.7894495 37.4112015 50.9039295 37.7179215 51.1566495 37.8108015 51.5411296 37.7157615 51.8111296 37.6380015 52.1545696 37.5408015 52.4245696 37.4824815 52.5196096 35.3613614 53.8588097 34.9920014 55.0100897 37.7956815 55.4636897 36.4975215 58.4768898 38.8432815 58.3926498 39.1046416 60.1206499 43.0358417 57.8504898 43.9128017 55.1029697 45.3081618 52.1459296 45.1029618 50.9730495 43.2561617 51.1026495 43.2259217 48.9858495 39.8995216 49.0700895 36.6573615 47.1736094 33.4432813 48.0440894 34.9444814 37.550809 35.0028014 37.455769 35.2144814 37.319689 35.4844814 37.092889 35.8322414 36.844489 36.0266414 36.632809 36.3139214 36.481609 36.5061615 36.269929 36.7200015 36.136009 36.9878415 35.9048889 37.2578415 35.6780889 37.5494415 35.5247289 37.8367215 35.3713689 38.1823215 35.1208089 38.4544815 34.8918489 38.7244815 34.6628889 38.9944815 34.4317689 39.3422416 34.1855289 39.7072816 34.0127289 39.9967216 33.8593689 40.2840016 33.7060089 40.5561616 33.4770488 40.8456016 33.3258488 41.1328816 33.1724888 41.4396016 33.0968888 41.9601617 32.8873688 42.4224017 32.7728888 42.8846417 32.6605688 43.2712817 32.5655288 43.7335217 32.4510488 44.0791218 32.5309688 44.3858418 32.4532088 44.6536818 32.5525688 44.9042418 32.5720088 45.0964818 32.6864888 45.5176818 32.7469688 45.7315218 32.9413688 45.9043218 32.9780888 45.9216018 33.0558488 47.3904019 36.369289 49.798802 34.8788889 51.373442 35.6348889 52.6305621 33.7772889 54.5162422 33.1465688 52.7385621 30.2370487 53.7818421 29.1635287 52.3260021 27.8912886 49.863602 28.4939286 48.8332819 25.6448885 45.7250418 28.9410487 44.9733618 29.8612087 39.7396816 30.4940887 35.4628814 33.0148088 36.5623215 26.5391286 36.6012015 26.3663286 36.6422415 26.1935286 36.8172015 25.9062485 36.9921615 25.6168085 37.2794415 25.1372885 37.5516015 24.5821685 37.9771215 23.9881685 38.3270415 23.4136084 38.5581615 23.0291284 38.8087215 22.7224084 39.0420016 22.3379284 39.2169616 22.0528084 39.4480816 21.6661684 39.6792016 21.2838484 39.9319216 20.9771283 40.1652016 20.5948083 40.4719216 20.1908883 40.8024016 19.8647283 41.0529616 19.5601683 41.2840816 19.1756883 41.6124017 18.8495283 41.9407217 18.5233683 42.2690417 18.1993682 42.5390417 17.9682482 42.8673617 17.6420882 43.2151217 17.3936882 43.5412817 17.0696882 43.9084817 16.8968882 44.2562418 16.6484882 44.6018418 16.4000882 45.0446418 16.2078482 45.4118418 16.0372082 45.8546418 15.8471281 46.1419218 15.6959281 46.5890419 15.5058481 46.9713619 15.4108081 47.3558419 15.3136081 47.7403219 15.2207281 48.2025619 15.1062481 48.5092819 15.0306481 48.8980819 14.9356081 49.280402 14.8405681 49.587122 14.7649681 49.820402 14.7088081 50.129282 14.6310481 50.436002 14.5576081 50.764322 14.5597681 50.934962 14.5986481 51.397202 14.4863281 51.6283221 14.4280081 51.8788821 14.4474481 51.8983221 14.5252081 55.2355222 16.1538482 57.7648823 18.7976883 58.7757623 15.6095281 60.6981624 16.1149682 61.2295224 13.6180081 63.8841625 12.475368 61.1841624 10.1188079 60.5167224 8.73208786 60.5188824 7.42528781 60.5016024 7.34968781 60.3460824 7.38640781 60.1948824 7.42528781 59.8860024 7.49872781 59.5792824 7.57432782 59.2682424 7.65208782 58.8859223 7.74496782 58.4992823 7.84000783 58.1169623 7.93504783 57.7281623 8.02792783 57.3458423 8.12296784 57.0391223 8.19856784 56.7302423 8.27632784 56.4969622 8.33248785 56.3457622 8.36920785 56.2075222 8.48584785 55.9224022 8.31088785 55.6545622 7.88752783 55.3672822 7.38640781 55.2506422 7.2503278 52.3238421 8.95024787 51.042962 11.715048 44.0553618 13.5143281 43.9624817 13.4538481 43.7292017 13.5121681 43.5736817 13.5488881 43.4203217 13.5877681 43.1136017 13.6633681 42.8241617 13.8167281 42.5930417 13.8728881 42.2863217 13.9484881 41.9191217 14.1212881 41.5735217 14.3696881 41.1285616 14.5597681 40.7829616 14.8081681 40.3596016 15.0760081 39.8584816 15.3611281 39.4329616 15.6289681 39.0463216 16.0523282 38.5646415 16.4130482 38.1974415 16.9120082 37.7352015 17.3526482 37.2902415 17.8688882 36.8625615 18.4650482 36.4370414 19.0590483 36.1886414 19.3657683 36.0136814 19.6552083 35.7825614 20.0375283 35.5492814 20.4198483 35.3937614 20.7870483 35.2382414 21.1499284 35.0071214 21.5365684 34.7932814 21.9944884 34.6399214 22.3595284 34.4433614 22.8973684 34.2900014 23.2624084 34.0934414 23.8002485 33.9768014 24.3186485 33.7629613 24.7808885 33.6463213 25.2992885 33.4713613 25.9127285 33.3331213 26.3555286 33.2942413 26.8544886 33.1776013 27.3728886 33.0588013 27.8934486 33.0004813 28.3146486 32.7866413 28.7747287 32.7456013 29.2736887 32.6289613 29.7920887 32.5512013 30.1398487 32.5101613 30.6388087 32.4518413 31.0621688 32.3136013 31.5028088 32.2552813 31.9261688 32.1775213 32.2717688 32.1170413 32.6929688 31.9831213 33.1379288 31.9788013 33.4619288 31.9204813 33.8874489 31.8427213 34.2308889 31.7822413 34.6542489 31.7822413 34.9825689 31.7239213 35.4037689 31.6440013 35.7493689 31.5662413 36.097129 31.5662413 36.421129 31.4863213 36.768889 31.4841613 37.095049 31.4064012 37.440649 31.4042412 37.768969 31.3264812 38.114569 31.3264812 38.440729 31.2487212 38.7863291 31.2271212 39.3630491 31.1277612 39.9592091 31.1083212 40.5380891 30.9312012 41.1515292 30.9096012 41.7260892 30.8102412 42.3244092 30.6936012 42.8428092 30.6136812 43.5145692 30.4970412 44.0329693 30.3976812 44.6291293 30.2032812 45.1669693 30.0283212 45.7804093 29.9095212 46.3009694 29.7367212 46.9144094 29.4840012 47.5472894 29.2291212 48.1823294 29.0347212 48.7180095 28.7841611 49.3530495 28.5314411 49.9859295 28.2009611 50.6404095 28.0065611 51.1760895 27.6588011 51.7528096 27.4644011 52.2884896 27.1166411 52.8630496 26.9049611 53.3252896 26.6133611 53.8048097 26.321761 54.2843297 26.051761 54.8416097 25.818481 55.2260897 25.451281 55.7228897 25.237441 56.1829697 24.948001 56.6624898 24.775201 56.9519298 24.464161 57.3536898 24.213601 57.6625698 23.980321 58.0470498 23.6131209 58.5438498 23.2459209 59.0406499 23.0126409 59.4251299 22.7620809 59.7318499 22.5525609 59.8657699 22.5115209 60.0364099 22.7404809 65.6156901"></polyline>
                <polyline id="Path" fill="#B8D987" points="22.2825609 74.3831305 23.1984009 66.4818502 22.1983209 56.7661698 22.2566409 56.6711298 22.2760809 56.4205698 22.3948809 55.9064897 22.4337609 55.4053697 22.5115209 55.0576097 22.5698409 54.6342497 22.6303209 54.2130497 22.7080809 53.8652897 22.8074409 53.2712896 22.8657609 52.8479296 22.9068009 52.3489696 23.0256009 51.8284096 23.1984009 51.2149696 23.2977609 50.6188095 23.3776809 50.2753695 23.4748809 50.0053695 23.5332009 49.5820095 23.5548009 49.3314495 23.6325609 48.9858495 23.7081609 48.6424094 23.7880809 48.2946494 23.8852809 48.0246494 23.963041 47.6790494 24.040801 47.3356094 24.120721 46.9900094 24.198481 46.6422494 24.334561 46.2016094 24.490081 45.8365693 24.567841 45.4909693 24.723361 45.1259293 24.783841 44.7047293 24.939361 44.3375293 25.092721 43.9724893 25.170481 43.6290492 25.308721 43.1862492 25.388641 42.8384892 25.542001 42.4756092 25.619761 42.1300092 25.833601 41.6699292 25.909201 41.3221692 26.069041 40.9571291 26.222401 40.5920891 26.356321 40.1536091 26.4945611 39.7108091 26.6500811 39.3479291 26.8056011 38.9807291 26.9416811 38.540089 27.0777611 38.097289 27.2160011 37.656649 27.3693611 37.291609 27.5248811 36.926569 27.6609611 36.483769 27.7970411 36.0409689 27.9525611 35.6780889 28.1080811 35.3130489 28.2441611 34.8702489 28.3996811 34.5073689 28.5552011 34.1423289 28.6912811 33.6995289 28.8273611 33.2588888 28.9072811 32.9111288 29.0606412 32.5482488 29.2161612 32.1832088 29.2939212 31.8376088 29.4494412 31.4747288 29.5293612 31.1269688 29.6848812 30.7619287 29.8188012 30.3212887 29.9743212 29.9562487 30.0520812 29.6084887 30.3069612 28.9777687 30.4819212 28.3621686 30.5596812 28.0165686 30.6374412 27.6709686 30.8102412 27.3836886 30.9096012 27.1136886 31.0845612 26.4980886 31.2012012 25.9818485 31.3956012 25.4440085 31.6094413 24.9817685 31.7476813 24.5411285 31.8232813 24.1933685 31.9615213 23.7548885 32.0587213 23.4848884 32.1364813 23.1392884 32.1753613 22.9643284 32.3481613 22.6792084 32.3287213 22.5992884 35.4801614 23.4589684 39.4956016 29.4940087 40.3509616 26.6708886 42.7550417 26.8134486 42.7053617 24.6232085 41.7873617 23.2148884 42.9472817 21.6229684 40.2602416 20.3248083 40.3639216 18.7501683 37.7481615 18.7393683 35.9942414 20.2319283 32.9745613 19.9122483 34.0372814 13.6093681 35.2987214 10.7689679 36.7048815 10.5032879 36.5968815 8.08192784 38.1412815 6.39496777 36.5536815 4.25656769 36.0115214 0.714167544 32.9119213 1.72072758 30.5467212 1.40536757 30.0931212 5.18968772 28.7042411 5.85928775 30.8145612 11.788488 30.8340012 11.864088 30.7951212 12.039048 30.7929612 12.367368 30.7519212 12.866328 30.7324812 13.114728 30.7324812 13.4430481 30.6525612 13.7864881 30.5942412 14.2098481 30.5920812 14.5381681 30.5337612 14.9593681 30.4732812 15.3827281 30.3566412 15.9011281 30.2983212 16.3244882 30.2378412 16.7478482 30.1212012 17.2662482 30.0801612 17.7652082 29.9613612 18.2836082 29.7691212 18.8214483 29.7280812 19.3204083 29.5531212 19.9360083 29.5120812 20.4349683 29.3176812 20.9749683 29.2183212 21.5689684 29.0433612 22.1845684 28.8511211 22.7202484 28.6545611 23.2602484 28.4623211 23.7980885 28.2852011 24.4115285 28.1880011 24.6815285 28.0908011 24.9515285 28.0108811 25.2949685 27.9352811 25.6405685 27.8380811 25.9105685 27.6825611 26.2756086 27.5443211 26.7140886 27.3888011 27.0812886 27.2354411 27.4441686 27.0993611 27.8869686 26.9632811 28.3297686 26.8272011 28.7704087 26.6133611 29.2326487 26.4772811 29.6732887 26.358481 30.1916887 26.164081 30.7295287 25.950241 31.1896088 25.833601 31.7080088 25.697521 32.1508088 25.503121 32.6886488 25.291441 33.1508888 25.172641 33.6671289 24.978241 34.2071289 24.783841 34.7428089 24.589441 35.2806489 24.395041 35.8184889 24.276241 36.336889 24.084001 36.874729 23.947921 37.317529 23.7535209 37.853209 23.5591209 38.391049 23.3841609 39.0044891 23.1681609 39.4645691 23.0320809 39.9095291 22.8376809 40.4452091 22.7016009 40.8880091 22.5655209 41.3286492 22.3711209 41.8664892 22.2350409 42.3092892 22.0212009 42.7693692 21.8851209 43.2100092 21.7490409 43.6528093 21.6129609 44.0956093 21.4768809 44.5362493 21.3969609 44.8818493 21.1852808 45.3419293 21.1075208 45.6875293 20.9498408 46.0525693 20.7748808 46.6681694 20.5243208 47.3010494 20.4076808 47.8194494 20.1938408 48.2816894 20.1139208 48.6272894 20.0167208 48.8951295 19.8828008 49.0117695 19.9195208 49.1651295 18.4852807 62.25473 17.4463207 67.3264102 17.0596807 72.4024104 22.2825609 74.3831305"></polyline>
                <polyline id="Path" fill="#231F20" points="14.0529606 74.4457705 13.9557606 74.3852905 13.7073605 74.3680105 13.4568005 74.3485705 12.9556805 74.3053705 12.4567205 74.2686505 11.8994405 74.3204905 11.5927205 74.3982505 11.2838404 74.4716905 10.8972004 74.5667305 10.5343204 74.7416905 10.3010404 74.7956905 10.0137604 74.9468905 9.72432039 75.1024105 9.45432038 75.3313705 9.04824036 75.6748105 8.64432034 76.0225705 8.39160033 76.3271305 8.06544032 76.6532906 8.02224032 76.8260906 7.90776031 77.0161706 8.06328032 76.9794506 8.29440033 76.9232906 8.75448035 76.8109706 9.23616037 76.7720906 9.54288038 76.6964906 9.87120039 76.7008106 10.1973604 76.6964906 10.5451204 76.7785706 10.9490404 76.7612906 11.2946404 76.8390506 11.7158405 76.8995306 12.1003205 77.1328106 14.0529606 74.4457705"></polyline>
                <polyline id="Path" fill="#231F20" points="11.0160004 79.0314507 10.9965604 78.9515307 10.8237604 78.9126507 10.5559204 78.8154506 10.1325604 78.7571306 9.86256039 78.6577706 9.53640038 78.6577706 9.26856037 78.5605706 8.80632035 78.6728906 8.46072034 78.5929706 7.92072031 78.7247306 7.4412003 78.7679306 6.90120027 78.8975307 5.87304023 81.3534507 5.94864024 81.3361707 6.18192025 81.2778507 6.64416026 81.1633707 7.06536028 81.2238507 7.37424029 81.1504107 7.70040031 81.1504107 8.02656032 81.1525707 8.37216033 81.2324907 8.77608035 81.2108907 9.12384036 81.2908107 9.46944038 81.3685707 9.85176039 81.5996908 11.0160004 79.0314507"></polyline>
                <polyline id="Path" fill="#231F20" points="9.07848036 83.4270508 8.88408035 83.3104108 8.69184035 83.1916108 8.21232033 83.2261708 8.01792032 83.1116908 7.69392031 83.1116908 7.4455203 83.0900908 7.03944028 83.1095308 6.71328027 83.1073708 6.23160025 83.1440908 5.84496023 83.2391308 5.23152021 83.3881708 4.52736018 85.8505709 4.68288019 85.8116909 4.83840019 85.7728109 5.1429602 85.6993709 5.54904022 85.6799309 5.85576023 85.6043309 6.10632024 85.6259309 6.43464026 85.6280909 6.78024027 85.7036909 7.20144029 85.7620109 7.4714403 85.8635309 7.89264031 85.9196909 8.33544033 86.0557709 9.07848036 83.4270508"></polyline>
                <polyline id="Path" fill="#231F20" points="7.84728031 88.053771 7.82568031 87.978171 7.73280031 87.917691 7.4649603 87.822651 7.03944028 87.764331 6.84936027 87.645531 6.59880026 87.626091 6.25320025 87.550491 5.92488024 87.550491 5.60088022 87.544011 5.1170402 87.582891 4.65480018 87.697371 4.11696016 87.829131 3.62664014 90.4816111 3.78000015 90.4405711 3.93552016 90.4016911 4.24224017 90.3282511 4.74120019 90.3692911 5.0500802 90.2915311 5.28120021 90.2353711 5.60736022 90.2375311 5.95296024 90.3152911 6.27912025 90.3196111 6.62688026 90.3930511 6.97248028 90.4751311 7.33752029 90.6284911 7.84728031 88.053771"></polyline>
                <polyline id="Path" fill="#231F20" points="7.02000028 92.6632112 7.00272028 92.5919312 6.82992027 92.5487312 6.63768026 92.4320912 6.23376025 92.4515312 6.04152024 92.3348912 5.79096023 92.3154512 5.46480022 92.3132912 5.0608802 92.3327312 4.73256019 92.3305712 4.33080017 92.3478512 3.92688016 92.3672912 3.38904013 92.4968912 2.89656012 95.1493713 2.97432012 95.1299313 3.12768012 95.0888913 3.51216014 94.9981713 3.91824016 94.9808913 4.14936016 94.9225713 4.39560017 94.9463313 4.70448019 94.8707313 5.0522402 94.9463313 5.37840021 94.9484913 5.80176023 95.0068113 6.22296025 95.0629713 6.58800026 95.2163313 7.02000028 92.6632112"></polyline>
                <path d="M21.1831208,95.1450513 L20.7986408,94.9139313 L20.3666408,94.5272913 L19.9454408,94.1384913 L19.3881608,93.8684912 L18.8330407,93.5963312 L18.4485607,93.3652112 L18.1807207,93.2680112 L17.7940807,93.0368912 L17.4312007,92.8813712 L17.0661607,92.7258512 L16.7011207,92.5681712 L16.2691206,92.4342512 L15.8263206,92.2960112 L15.2020806,94.4084913 L15.3748806,94.4473713 L15.8068806,94.5100113 L16.1524806,94.5834513 L16.5196807,94.7432913 L16.9516807,94.8772113 L17.3361607,95.1104913 L17.7962407,95.3264913 L18.1915207,95.5684113 L21.6734409,95.5684113 C21.6800502,95.5463531 21.6879846,95.5247137 21.6972009,95.5036113 L21.5654409,95.3826513 L21.1831208,95.1450513 Z" id="Path" fill="#FBB161" fill-rule="nonzero"></path>
                <path d="M64.9425626,12.460248 C64.4414426,11.674008 63.9057625,10.7192879 63.0806425,10.2203279 C62.6011225,9.93088791 62.2360825,9.48376789 61.7047225,9.25696788 C61.6075224,9.21592788 61.0804824,9.14032788 61.0956024,9.04096788 C61.1517624,8.67376786 61.2100824,8.30656785 61.2662424,7.93936783 C61.3936824,7.1164078 61.5146424,7.2352078 60.9638424,6.90040779 C60.6895224,6.73408778 59.9335224,6.71248778 59.6116824,6.72544778 C58.7325623,6.76864778 57.0196823,6.90904779 56.4040822,7.61320782 C56.2636822,6.65200778 55.2700822,5.00392771 54.1922422,5.91112775 C53.7602421,6.27616777 53.2180821,6.43600777 52.7947221,6.89824779 C52.4176223,7.30404707 52.0621694,7.72943695 51.7298421,8.17264784 C51.3469372,8.71271535 51.0225531,9.29197267 50.762162,9.90064791 C50.494322,10.5076079 50.500802,11.010888 49.727522,11.010888 C48.5568019,11.010888 47.2975219,11.486088 46.1592018,11.766888 C43.8998417,12.322008 41.2776016,13.222728 39.4783216,14.7498481 C38.6402415,15.4604881 37.8129615,16.0955282 37.0288815,16.8515282 C36.5709615,17.2835282 36.2275214,17.8040882 35.8149614,18.2814482 C35.3224814,18.8560083 35.4801614,19.2534483 34.6442414,19.0612083 C34.4282414,19.0115283 34.1517614,19.1260083 33.9206413,19.1173683 C34.0804814,18.4542482 34.0286414,17.7068882 34.1366414,17.0200082 C34.2748814,16.1776082 34.4390414,15.3676081 34.6291214,14.5338481 C34.7392814,14.0521681 34.8710414,12.862008 35.2425614,12.546648 C35.5255214,12.302568 35.5557614,11.937528 35.9661614,11.836008 C36.3765614,11.734488 36.8042415,11.836008 37.1952015,11.861928 L37.2340815,12.013128 C37.6660815,11.086488 37.9101615,10.1166479 37.6488015,9.05608788 C37.544938,8.81120261 37.456211,8.56017014 37.3831215,8.30440785 C37.3982415,8.25472784 38.0095215,7.80328783 38.0959215,7.70176782 C38.3918415,7.35400781 39.0830416,6.58720778 38.9599215,6.12064776 C38.6834415,5.00176771 37.0159215,4.39264769 37.2600015,3.34936765 C37.4436015,2.59552762 37.2016815,0.651527542 36.4543214,0.197927524 C35.4456014,-0.428472501 33.9811214,0.59536754 33.1452013,1.01008756 C32.6872813,1.23904757 32.7736813,1.26280757 32.3136013,1.04896756 C32.0339722,0.88568191 31.7378419,0.752459443 31.4301612,0.651527542 C30.7411212,0.496007536 30.4084812,0.435527533 30.0218412,1.08352756 C29.7133051,1.58107451 29.487191,2.12520697 29.3522412,2.69488762 C29.2507212,3.14848764 29.4775212,4.06000768 29.2550412,4.42288769 C29.2269612,4.46608769 28.4688011,4.7382477 28.3672811,4.80304771 C28.0888229,4.97414195 27.8364021,5.18437144 27.6177611,5.42728773 C27.4017611,5.67136774 27.8143211,6.95008779 27.9158411,7.28272781 C28.2576404,8.43971092 28.6651011,9.57627383 29.1362412,10.6868879 C29.6697612,11.926728 30.1514412,12.548808 29.9181612,13.9614481 C29.5552812,16.1560082 29.0088012,18.3786482 28.6999211,20.6099283 C28.3845611,22.9038484 27.4579211,25.2042485 26.6371211,27.3469686 C25.816321,29.4896887 25.036561,31.6561688 24.185521,33.8053689 C23.7816009,34.8227289 23.2459209,35.9092089 23.0061609,36.976249 C22.7664009,38.043289 22.0320009,39.0412091 21.7101609,40.0952891 C21.4012809,41.1040091 20.9844008,42.0392892 20.6193608,43.0328892 C20.2543208,44.0264893 20.0318408,45.1928893 19.5588008,46.1735294 C19.5199208,44.9704093 19.4702408,43.8493693 19.5458408,42.6440892 C19.6303857,41.5013679 19.6253303,40.3537811 19.5307208,39.2118491 C19.4119208,38.023849 19.6495208,36.835849 19.5976808,35.6348889 C19.5436808,34.3950489 19.5177608,33.1163288 19.5652808,31.8700088 C19.6495208,29.5544887 19.2736808,26.8199286 18.7704007,24.5476085 C18.5047207,23.3509684 18.4528807,22.1478484 17.9906407,20.9922484 C17.5377539,19.8410506 17.1611003,18.6613025 16.8631207,17.4606482 C16.2842406,15.1235281 14.8003206,13.032648 14.2214406,10.7020079 C13.9406406,9.5680079 14.1696006,8.54200786 14.5670406,7.46200781 C14.8068006,6.80104779 16.0941606,4.89592771 15.5196006,4.36888769 C15.0530406,3.93688767 14.5692006,3.72088766 14.0594406,3.41848765 C13.5950405,3.13984764 12.7159205,3.37096765 12.3530405,3.10744764 C12.1586405,2.96488763 11.8670405,1.92376759 11.6661605,1.64296758 C11.3615857,1.16736538 10.9559731,0.764702675 10.4781604,0.463607534 C10.1174404,0.260567526 9.22320037,0.0510475179 8.93808036,0.521927537 C8.69184035,0.930167553 8.50608034,1.76176759 8.17560032,2.0533676 C8.08056032,2.1354476 6.82560027,1.71640758 6.52968026,1.75096759 C5.90759428,1.840758 5.29156886,1.9684354 4.68504019,2.1332876 C4.74120019,2.60632762 4.63752018,3.10528764 4.71744019,3.59560766 C4.82544019,4.24360768 5.1192002,4.87216771 5.19048021,5.52016774 C5.25096021,6.06880776 5.33952021,5.85064775 5.0349602,6.21352776 C4.81995598,6.4061642 4.59189234,6.58370741 4.35240017,6.74488778 C3.88116249,7.16827222 3.47952472,7.6632124 3.16224013,8.21152784 C3.06936012,8.36488785 2.69136011,8.82928787 2.81880011,8.94808787 C3.07152012,9.17920788 3.31128013,9.41464789 3.54672014,9.6652079 C3.96576016,10.0972079 4.57488018,10.4471279 5.0911202,10.7603279 C6.12232774,11.3630544 7.22543117,11.8333248 8.37432033,12.160008 C8.80632035,12.296088 9.56880038,12.363048 9.69840039,12.894408 C9.82800039,13.425768 10.4349604,13.8880081 10.5624004,14.4193681 C10.8518404,15.6203281 11.6272805,16.6938482 12.0592805,17.8645682 C12.9252787,20.2517215 13.5850539,22.7087157 14.0313606,25.2085685 C14.0983206,25.5757685 14.1890406,26.0531286 14.0853606,26.4203286 C13.2327641,25.7579166 12.1636672,25.4374956 11.0872804,25.5217685 L10.2513604,25.5865685 C9.9986404,25.6060085 9.91656039,25.1308085 9.76104039,24.9385685 C9.40190279,24.5607401 9.00449028,24.2212383 8.57520034,23.9255285 C7.85592031,23.3704084 6.65928026,22.6295284 5.72616023,22.6295284 C5.43672022,22.6295284 4.34592017,22.2860884 4.29624017,22.6295284 C4.19498715,23.1232837 4.12786826,23.6234277 4.09536016,24.1264085 C4.08482413,24.6113245 4.10864372,25.0963779 4.16664017,25.5779285 C4.23096646,25.8361914 4.26860384,26.1003768 4.27896017,26.3663286 C4.20336017,26.7162486 4.17528017,26.5650486 3.88368015,26.8523286 C3.59208014,27.1396086 1.82736007,28.7963287 2.17728009,29.1246487 C2.3932801,29.3406487 3.53808014,30.1852087 3.39552013,30.4206487 C3.12303627,30.9254473 2.92652034,31.4676857 2.81232011,32.0298488 C2.5704001,33.0299288 2.4364801,33.9846489 2.72592011,34.9933689 C3.63312014,34.6866489 4.75200019,34.8637689 5.63544022,34.5095289 C6.00696024,34.3604889 6.62040026,33.9652089 6.77160027,34.4296089 L7.37424029,36.295849 C8.26416033,35.7104889 9.42408037,35.4707289 10.2448804,34.6931289 C11.0656804,33.9155289 11.6164805,32.6130488 11.7093605,31.5179288 C11.8627205,29.7035287 13.3099205,31.4142488 13.7138405,32.2091288 C14.2624806,33.2891288 14.2516806,34.6585689 14.0810406,35.8487289 C13.7505605,38.183689 14.0421606,40.5877691 13.8650406,42.9140892 C13.6490405,45.5363293 14.3856006,48.1823294 14.5368006,50.7851295 C14.6772006,53.2129696 14.9018406,55.7164097 14.8932006,58.2068898 C14.8845606,60.6973699 14.5670406,63.08201 14.3251206,65.5314501 C14.2171206,66.6308902 14.3013606,67.8836902 14.0594406,68.9485703 C13.9539288,69.5135604 13.8875311,70.0851581 13.8607206,70.6592903 C13.8434406,70.8752903 12.6079205,70.8083303 12.3638405,70.8320903 C11.2341604,70.9336103 9.77184039,71.1409703 8.78904035,71.7544104 C7.6572003,72.4672104 6.94872028,73.2556104 6.14088024,74.3183305 C3.18168013,78.2063306 2.31120009,82.9864108 1.25928005,87.604491 C0.721440029,89.9610511 0.686880027,92.3759312 0.157680006,94.7195313 C0.0972000039,94.9852113 0.0540000021,95.2616913 1.63424829e-13,95.5316913 L2.4084001,95.5316913 C2.4429601,95.3156913 2.4796801,95.0996913 2.5142401,94.8836913 C2.70432011,93.7086512 2.96568012,92.4601712 3.05640012,91.2721711 C3.14712013,90.0841711 3.62880014,88.896171 3.72600015,87.682251 C3.91608016,85.2846509 4.9356002,83.0641708 5.45400022,80.7702507 C5.88600023,78.8629706 7.02864028,76.7288906 8.30088033,75.2557705 C8.97228506,74.4584091 9.80775855,73.8152271 10.7503204,73.3700904 C11.4415205,73.0439304 12.6252005,73.1303304 13.4805605,73.0849704 C17.1763207,72.8840904 21.3861608,74.1908905 23.7146409,77.1889706 C23.9459475,77.6768435 24.2361053,78.1345675 24.578641,78.5519306 C24.928561,79.0336107 24.989041,79.7291307 25.129441,80.3036907 C25.3925088,81.473662 25.3976683,82.6868844 25.144561,83.8590508 C24.667201,86.0190509 24.114241,88.120731 23.4878409,90.2245711 C22.9586409,91.9936112 22.3387209,93.7345712 21.6972009,95.4712113 L21.7663209,95.5360113 L23.926321,95.5360113 C24.0799821,94.9359249 24.2822504,94.3493468 24.531121,93.7820912 C25.395121,91.9223312 25.915681,89.6348911 26.364961,87.639051 C26.9157611,85.1939309 27.4168811,82.7574508 27.2289611,80.2345707 C27.0734411,78.1739306 25.615441,75.3227305 23.8075209,74.2276105 C23.1876009,73.8517705 23.4597609,73.4888904 23.5915209,72.8948904 C23.7146409,72.3570504 23.7708009,71.8019304 23.8464009,71.2511303 C24.008401,70.0458503 24.144481,68.8038502 24.209281,67.5985702 C24.237361,67.0866502 24.157441,66.4969702 24.140161,65.9807301 C24.114241,65.1944901 24.140161,65.3327301 24.572161,64.7516901 C25.220161,63.8660901 25.937281,63.02369 26.6414411,62.18345 C28.0951211,60.4554499 29.2334412,58.5114498 30.5078412,56.6581698 C31.7822413,54.8048897 33.0631213,53.1762496 34.8602414,51.8759296 C35.1820814,51.6448096 35.9402414,51.2084896 36.2383214,51.7398496 C36.5104815,52.2258496 35.6788814,52.7982496 35.3203214,52.9883296 C34.8883214,53.2043296 34.2403214,53.4462496 33.8666413,53.7119297 C33.4540813,54.0013697 33.4692013,54.3361697 33.3417613,54.9020897 C33.8925613,55.0792097 34.3634414,55.4809697 34.9293614,55.6861697 C35.4520814,55.8719297 36.0439214,55.9648097 36.5299215,56.2391298 C35.7372014,57.0210498 35.8819214,58.3624098 35.5752014,59.3322499 C36.3938414,59.1162499 37.4047215,59.3776099 38.3054415,59.1508099 C38.2579215,59.6476099 38.2924815,60.1638499 38.1844815,60.6498499 C39.3357616,60.6628099 40.9341616,60.5072899 41.8975217,59.7858499 C42.4678266,59.3776091 42.947957,58.8563036 43.3080017,58.2544098 C43.6449617,57.6928098 43.6492817,56.8352898 44.0121617,56.3622498 C44.9604018,55.1224097 45.5911218,54.2735297 45.8157618,52.6902496 C45.9108018,52.0163296 46.0468818,51.2754496 45.9151218,50.5993695 C45.8330418,50.1781695 46.0058418,50.0420895 45.5479218,50.0464095 L44.1504018,50.0572095 C44.2065618,49.7440095 44.6169618,48.5905694 44.4636018,48.3464894 C44.3102418,48.1024094 43.3965617,48.1304894 43.0920017,48.0721694 C42.5844017,47.9576894 42.0573617,48.0916094 41.5605617,48.1628894 C41.2862416,48.2017694 40.1349616,48.5754494 39.9254416,48.4804094 C39.8757616,48.4588094 39.6576016,47.8993694 39.5992816,47.8324094 C39.4166566,47.6323744 39.2148056,47.4507808 38.9966415,47.2902494 C38.5646415,46.9273694 38.2471215,46.6314494 37.6768815,46.5536894 C36.4219214,46.3787294 35.5968014,46.7308094 34.3936814,46.9079294 C34.8451214,45.9294493 34.9142414,44.6010493 35.1540014,43.5383292 C35.4225664,42.4046768 35.5759844,41.2468048 35.6119214,40.0823291 C35.6119214,38.7085691 36.0201614,37.905049 36.9813615,36.952489 C37.8483616,36.0535607 38.8076563,35.2484771 39.8433616,34.5505689 C41.6469617,33.4165688 44.7379218,32.4251288 46.0728018,34.6542489 C46.3636925,35.1500003 46.5784875,35.6866238 46.7100019,36.246169 C46.7618419,36.462169 46.7596819,36.913609 46.9972819,36.894169 C47.379872,36.8688367 47.7578608,36.7962861 48.1226419,36.678169 C48.6421322,36.5144425 49.1053319,36.2083865 49.459682,35.7947289 C49.891682,35.2655289 50.502962,36.146809 51.030002,36.308809 C51.7168821,36.524809 52.3756821,36.740809 52.6824021,35.9653689 C52.9740021,35.2244889 52.6348821,34.4533689 53.3628021,34.0840089 C53.7710421,33.8680089 55.1880022,33.8680089 55.4061622,33.4187288 C55.5940822,33.0277688 54.9979222,31.6756088 54.7279222,31.4056088 C54.4579222,31.1356088 54.4039222,30.8526487 54.1080022,30.6344887 C53.6760021,30.3191287 54.1080022,30.2024887 54.2354422,29.7812887 C54.3996022,29.1980887 54.7603222,28.3384086 54.2721622,27.8178486 C53.5636821,27.0575286 51.179042,26.8804086 50.332322,27.3988086 C50.248082,26.8501686 49.727522,25.6708085 49.321442,25.2820085 C48.7641619,24.7571285 48.1269619,25.3554485 47.5826419,25.7464085 C46.5026418,26.5218486 45.1396818,27.7789686 44.9798418,29.2024087 C43.8328817,28.5090486 41.7895217,29.2520887 40.6015216,29.5458487 C40.7224816,29.1440887 40.9773616,27.4679286 41.4201616,27.5068086 C41.7852017,27.5370486 43.3641617,28.0014486 43.5650417,27.5068086 C44.0769618,26.2950486 43.8069617,24.2668085 42.9451217,23.2537684 C43.2259217,23.0701684 44.0812818,22.6921684 44.1223218,22.3897684 C44.1633618,22.0873684 43.3404017,21.2644084 43.1481617,21.0786484 C42.8124457,20.7751332 42.444491,20.5093077 42.0508817,20.2859283 C41.4482416,19.9208883 41.2603216,19.9424883 41.9104817,19.3852083 C43.4116817,18.0892082 45.1504818,16.9206482 47.0944819,16.4368082 C49.079522,15.9421681 50.861522,15.4734481 52.8012021,16.1754482 C53.8322988,16.5421374 54.7780901,17.1146093 55.5811222,17.8580882 C56.1902422,18.4067282 57.0931223,19.0957683 57.3825623,19.8647283 C58.1774423,19.0460883 58.8945623,18.5255283 59.1235223,17.3159282 C59.6721624,17.4412082 60.6700824,17.7997682 61.2014424,17.4584882 C61.8602425,17.0264882 61.7565625,15.6138481 61.8494425,14.9550481 C61.9876825,13.9463281 62.3203225,14.3675281 63.1303225,13.9376881 C63.5882425,13.6979281 65.2341626,13.127688 64.9425626,12.460248 Z M14.8802406,30.3191287 C13.7307849,28.8908737 11.850571,28.26949 10.0764004,28.7315287 C10.7244004,30.4206487 9.77832039,33.0277688 8.44344034,34.0321689 C8.19000033,33.2243288 7.93656032,32.4157688 7.68312031,31.6064888 L4.29624017,33.0860888 C4.38144774,32.5611137 4.4983007,32.0417672 4.64616018,31.5308888 C4.78224019,31.1593688 5.49072022,30.1139287 5.30712021,29.8979287 C4.77360019,29.2693687 4.19904017,28.9734487 5.0371202,28.3708086 C5.52744022,28.0187286 5.96376024,27.5672886 6.58584026,27.4614486 C6.55344026,27.0100086 6.16896025,26.6384886 6.03504024,26.2086486 C5.89395212,25.7478607 5.83044649,25.2668238 5.84712023,24.7852085 C6.81696027,24.9061685 7.87752031,25.6967285 8.49096034,26.4160086 C8.66376034,26.6190486 8.95752036,26.6600886 9.10008036,26.8890486 C9.20160037,27.0488886 9.42624037,27.4592886 9.62280038,27.5370486 C9.93816039,27.6515286 10.9058404,27.4096086 11.3162404,27.4484886 C12.4579561,27.5749254 13.5332236,28.0492194 14.3964006,28.8071287 C15.0444006,29.4054487 16.1589606,30.2802487 16.2432006,31.2155288 C16.7054407,30.5675287 16.2799206,28.6408087 16.2432006,27.8696886 C16.1762406,26.6622486 15.8436006,25.4936885 15.7485606,24.2819285 C15.5671206,22.0031284 14.6685606,19.7178483 13.9557606,17.5729682 C13.5669605,16.4000882 12.8973605,15.3870481 12.4135205,14.2789681 C12.0018685,13.2773446 11.5345804,12.2995009 11.0138404,11.350008 C10.7308804,10.8553679 10.5235204,10.3348079 9.93384039,10.3780079 C9.35195373,10.39893 8.7741275,10.2734125 8.25336033,10.0129679 C7.16864608,9.57857362 6.11622681,9.06752229 5.1040802,8.48368785 C5.54904022,7.75360782 6.00264024,7.50304781 6.68088027,7.0732078 C6.85584027,6.96304779 7.4671203,6.79240779 7.4304003,6.64120778 C7.33752029,6.26320776 7.16472028,5.90032775 7.06968028,5.51152773 C6.93360028,4.95640771 6.28344025,3.78352767 7.13232028,3.78352767 C7.85160031,3.78352767 8.48448034,3.78352767 9.18000036,4.13776768 C9.32185797,3.60316417 9.52252264,3.08592746 9.77832039,2.59552762 C10.5991204,3.19816764 10.9965604,3.91312767 11.2384804,4.88944771 C11.3421605,5.30200773 11.9707205,5.05144772 12.3919205,5.03200772 C12.7591205,5.01688772 13.1760005,5.18104772 13.5345605,5.26096772 C12.9902405,6.16816776 12.7267205,7.1704078 12.3703205,8.16184784 C11.9124005,9.42544789 12.0117605,10.4298479 12.5042405,11.645928 C13.3898405,13.8361681 14.3100006,16.0372082 15.0962406,18.2663282 C15.900153,20.5373316 16.5276944,22.8669615 16.9732807,25.2344885 C17.1892807,26.4246486 17.2951207,27.6688086 17.4592807,28.8697687 C17.6191207,30.0232087 17.8437607,31.4617688 17.6752807,32.5957688 C17.5068007,33.7297689 17.7163207,34.9372089 17.7141607,36.0733689 C17.7120007,37.209529 17.4981607,38.384569 17.4981607,39.5509691 C17.4981607,42.0630492 17.6817607,44.4606493 17.6817607,46.9360094 C17.6817607,48.1585694 18.0057607,49.3508895 18.1008007,50.5518495 C18.1677232,51.8177182 18.1590678,53.0864519 18.0748807,54.3512897 C17.9712007,56.7272898 17.7055207,59.1032899 17.8113607,61.49225 C17.8783207,63.00425 17.2864807,64.6004901 16.9473607,66.0584901 C16.554028,67.6568702 16.408332,69.3061488 16.5153607,70.9487303 C16.282305,70.9132894 16.0469351,70.8952396 15.8112006,70.8947303 C16.0790406,68.4712102 15.9969606,66.0282501 16.3900807,63.58961 C16.7832007,61.1509699 16.8717607,58.5568098 16.9538407,56.0987297 C17.0201726,54.8794664 16.9927319,53.6569088 16.8717607,52.4418496 C16.7162407,51.1588095 16.3576806,49.8649695 16.3684807,48.5668094 C16.3792807,47.2686494 16.1524806,46.0072093 16.1524806,44.7004093 C16.1524806,43.3936092 16.1373606,42.0284892 16.1524806,40.7022491 C16.1654406,38.9267291 16.3296006,37.151209 16.3468806,35.3476089 C16.3468806,34.5268089 16.4916007,33.6088089 16.2972006,32.8268888 C16.0855206,31.9045688 15.4677606,31.0556887 14.8802406,30.3191287 Z M23.4705609,57.8051298 C23.5119159,57.5186144 23.5119159,57.2276452 23.4705609,56.9411298 C23.6089645,55.6803593 23.6652432,54.4119235 23.6390409,53.1438496 C23.6678368,51.912158 23.9067086,50.6944233 24.345361,49.5431295 C25.092721,47.4284894 25.619761,45.2231293 26.349841,43.0890492 C26.7235211,42.0090492 27.1425611,40.8534491 27.5745611,39.7669691 C27.9676811,38.7755291 28.5098411,37.743049 28.7431211,36.701929 C28.9893612,35.5960089 29.4559212,34.4965689 29.8771212,33.4424888 C30.2983212,32.3884088 30.5510412,31.2824888 30.9376812,30.2024887 C31.3243212,29.1224887 31.6180813,27.9755286 31.9140013,26.8588086 C32.0911213,26.1805686 32.3460013,24.0508085 33.1365613,23.8650485 C32.9745613,24.9018485 32.5512013,25.9645685 32.3179213,26.9970486 C32.0500813,28.1893686 31.8016813,29.3255287 31.5900013,30.5308087 C31.1925612,32.8160888 31.0737612,35.0279289 30.6892812,37.324009 C29.8900812,42.1019292 28.9612812,46.8949694 26.9114411,51.3316096 C25.8868253,53.5522883 24.738049,55.7135454 23.4705609,57.8051298 L23.4705609,57.8051298 Z M41.0464816,31.1550488 C42.6880817,30.7489687 44.3167218,30.5848087 45.9777618,30.9606487 C46.4335218,31.0643288 46.7812819,29.5134487 46.9497619,29.0533687 C47.2139107,28.2951602 47.7270668,27.6487661 48.4056019,27.2195286 C48.8246419,27.7789686 49.120562,28.5824887 48.9952819,29.2823287 C49.950002,29.1224887 50.889602,28.6235287 51.9069621,28.8503287 C52.4944821,28.9820887 52.6284021,28.8265687 52.5549621,29.4702487 C52.5009621,29.9216887 52.1056821,30.4508887 51.8184021,30.7921687 C52.6824021,31.0643288 53.1640821,31.8116888 53.4859221,32.5871288 C52.8681621,32.7534488 52.1769621,32.6605688 51.541922,32.6562488 C51.8896821,33.0256088 51.6844821,34.3561689 51.494402,34.7924889 C50.919842,34.2265689 49.852802,33.9284889 49.459682,33.1703288 C49.228562,33.9241689 48.5222419,34.5937689 47.8591219,34.9501689 C46.3276818,28.8395287 39.1219216,32.5028888 36.0590414,35.1186489 C35.3419214,35.7320889 34.1992814,36.641449 33.9660013,37.550809 C33.6787213,38.6718491 33.8277613,39.9268091 33.5664013,41.0780891 C33.2644155,42.2711095 33.0671072,43.4882056 32.9767213,44.7155293 C32.9356813,45.8236093 32.3481613,47.1131294 32.0954413,48.2060894 C31.9420813,48.8692095 31.7239213,49.5020895 31.5100813,50.1500895 C32.8924813,49.3314495 34.0740014,48.7460895 35.6702414,48.4760894 C36.9273615,48.2600894 39.1543216,48.8346495 39.2601616,50.4524895 C39.9880816,50.3250495 40.7829616,49.8714495 41.5389617,49.9319295 C41.6750417,49.9319295 42.7442417,50.0140095 42.6880817,50.2213695 C42.5440817,50.7311295 42.4051217,51.2416096 42.2712017,51.7528096 L44.3491218,51.5670496 C44.3167218,53.2216096 43.4851217,54.6450497 42.2884817,55.7790497 C42.1070417,55.9496897 42.2604017,56.5674498 42.1653617,56.8331298 C42.0249617,57.2240898 41.9191217,57.6388098 41.6318417,57.9520098 C41.0443216,58.6000098 40.4870416,58.8160099 39.6468016,59.0104099 C39.8296816,58.2025698 40.0125616,57.3954498 40.1954416,56.5890498 C39.2968816,57.1290498 38.4674415,57.7079298 37.4198415,57.9239298 C37.3852815,56.9908098 38.4523215,55.7358497 38.9901615,55.0057697 C37.9447215,54.8675297 36.9100815,54.6018497 35.8387214,54.4744097 C36.8107215,54.2216897 37.6099215,53.3684896 38.0548815,52.4569696 C38.4393615,51.6685696 38.1520815,50.0248095 37.1325615,49.7893695 C34.9207214,49.2731295 33.5901613,50.3315295 31.9723213,51.7139296 C30.2896812,53.1503296 29.2615212,55.2930497 27.9849611,57.0599298 C26.6738411,58.8721699 25.427521,60.9911299 23.7967209,62.55065 C23.7513609,62.07977 23.5094409,61.26977 23.6325609,60.8226499 C23.7556809,60.3755299 24.414481,59.7232099 24.712561,59.3538499 C25.520401,58.3667298 26.025841,57.1376898 26.7796811,56.1138497 C27.4730411,55.1699297 28.0108811,53.9408897 28.5076811,52.8738496 C29.054515,51.7444917 29.5327431,50.5831837 29.9397612,49.3962495 C31.2854412,45.2425693 32.3568013,40.8102491 32.7218413,36.466489 C33.0674413,32.3430488 33.8817613,28.3729686 34.9120814,24.3834485 C35.5384814,24.8759285 36.0957614,25.5995285 35.6248814,26.3620086 C35.2317614,27.0100086 35.1540014,28.1418486 35.0222414,28.8784087 C34.6744814,30.8353687 34.6420814,32.8398488 34.2705614,34.7795289 C36.5666415,33.5072888 38.4026415,31.7922488 41.0464816,31.1550488 Z M36.4672814,31.4617688 C36.4859997,31.2616273 36.5192068,31.0631067 36.5666415,30.8677687 C36.5666415,29.8093687 36.9619215,28.8179287 37.1174415,27.7940886 C37.5052163,28.166796 37.8415422,28.5895643 38.1175215,29.0512087 C38.3335215,29.3838487 38.9815215,29.6646487 39.3012016,29.9497687 C38.311199,30.3637049 37.3623714,30.8699391 36.4672814,31.4617688 L36.4672814,31.4617688 Z M41.7139217,22.2515284 L40.8002416,22.8066484 C41.5800017,23.2840084 42.4526417,25.0919285 42.1696817,26.0617686 C41.9536817,25.9300085 41.5216816,25.9256885 41.2106416,25.7917685 C40.7779672,25.5944917 40.3282832,25.4368855 39.8671216,25.3208885 C39.7116016,26.1222486 39.5517616,26.9236086 39.3962416,27.7249686 C38.7871215,26.7551286 38.0613615,25.8392885 37.4652015,24.8521685 C36.8949615,23.9039285 36.1929614,22.3379284 34.9833614,22.0722484 C34.0675214,21.8713684 32.6527213,21.6985684 31.7433613,22.1759284 C30.9182412,22.6079284 30.7497612,24.3013685 30.5575212,25.1653685 C30.0104862,27.4192745 29.2882912,29.6270247 28.3975211,31.7684888 C27.4773611,34.0559289 26.5982411,36.380089 25.842241,38.7280091 C25.105681,41.0154491 24.310801,43.3352892 23.4252009,45.5708893 C22.544358,47.7341373 21.9131576,49.9908054 21.5438409,52.2971296 C21.3645608,53.5564096 21.4617609,54.8718497 21.5438409,56.1116897 C21.6259209,57.3515298 21.5049609,58.6453698 21.6648009,59.9197699 C21.9499209,62.20721 21.6367209,64.7322501 22.1745609,66.9764902 C22.6454409,68.9399303 21.7123209,70.7608103 21.3300008,72.6162504 C20.8322845,72.3277886 20.3139098,72.076543 19.7791208,71.8645704 C19.1160008,71.6269704 18.7531207,71.6226504 18.7552807,70.8385703 C18.7552807,69.6678503 18.6170407,68.5381702 18.8848808,67.3825702 C19.1354408,66.3025702 19.5177608,65.0929701 19.6020008,63.9784101 C19.6819208,62.89841 19.6214408,61.76009 19.7726408,60.6865699 C20.1268808,58.1831298 19.7726408,55.6127297 20.1096008,53.0920096 C20.4465608,50.6663295 20.9044808,48.2600894 21.7382409,45.9402493 C22.5720009,43.6204092 23.5029609,41.3826492 24.330241,39.0930491 C25.172641,36.764569 25.842241,34.2784089 26.8898411,32.0449688 C27.3801611,30.9908887 27.6436811,29.8093687 28.0324811,28.7185687 C28.3845611,27.7357686 28.8964811,26.7032886 29.1232812,25.6708085 C29.3392812,24.6901685 29.6071212,23.6684885 29.9030412,22.7051284 C30.1989612,21.7417684 30.3004812,20.5624083 30.6849612,19.6552083 C31.1450412,18.5752083 31.1169612,17.3526482 31.3718412,16.2208082 C31.6445678,14.925875 31.7842534,13.6064616 31.7887213,12.283128 C31.7887213,11.496888 31.7887213,11.084328 31.2552012,10.4514479 C30.8441718,9.90085702 30.5186606,9.29134262 30.2896812,8.64352786 C30.0736812,8.10568784 29.7108012,7.2460078 29.7216012,6.66280778 C29.7216012,6.37768777 29.7086412,6.17248776 30.1881612,6.05584776 C30.5208012,5.97376775 30.8577612,5.80960775 31.1839212,5.97592775 C31.2919212,5.11192772 30.8750412,4.19392768 31.0219212,3.32128765 C31.2379212,2.0728076 32.3546413,2.94976763 32.5965613,3.75328767 C32.8838413,2.91088763 34.4973614,2.0771276 35.3354414,1.93672759 C35.6378414,2.98000763 35.4801614,3.96928767 35.1864014,4.99312771 C35.5773614,4.86352771 36.2275214,5.30848773 36.5342415,5.56120774 C37.2643215,6.16816776 36.9208815,6.46408777 36.2167214,6.85720779 C35.9683214,6.99760779 35.6983214,7.0969678 35.4520814,7.2524878 C34.9401614,7.57648782 35.3311214,7.53112782 35.5017614,7.93288783 C35.7566414,8.52472785 36.0871214,9.20944788 35.8992014,9.87688791 C32.9508013,8.06896784 32.2941613,19.5191283 31.7952013,20.7632883 C32.5058413,20.8259283 33.1538413,20.5235283 33.8947213,20.6941683 C34.1934585,20.7405996 34.4876022,20.8128707 34.7738414,20.9101683 C34.9358414,20.9792883 35.6551214,21.3421684 35.7717614,21.3421684 C36.2858414,21.2687284 36.8690415,20.2880883 37.3161615,19.9835283 C38.0060014,19.4958256 38.8902383,19.3749181 39.6856816,19.6595283 C39.5042416,20.1412083 39.3249616,20.6207283 39.1435216,21.1002484 C39.8671216,20.8518483 41.0572816,21.3724084 41.4849616,21.9923284 C41.5691579,22.0714379 41.6458085,22.1582121 41.7139217,22.2515284 Z M62.4499225,12.583368 C61.7738425,12.995928 60.8450424,12.825288 60.0998424,12.995928 C60.3028824,13.8102481 60.5318424,14.6008081 60.2056824,15.4194481 C59.9443224,15.3503281 59.4626424,15.4194481 59.1105623,15.2639281 C58.6526423,15.0695281 58.2076823,14.8168081 57.7281623,14.6418481 C57.9241758,15.5254607 57.8057721,16.4497741 57.3933623,17.2554482 C56.5651814,16.0221232 55.4197819,15.0349156 54.0777621,14.3977681 C52.4080821,13.6698481 50.811842,13.8880081 49.0514419,14.0197681 C47.6474419,14.1256081 45.9864018,14.7390481 44.7314418,15.3287281 C43.3101617,15.9940082 41.5260017,16.7068082 40.4935216,17.9617682 C40.1068816,17.5168082 39.3292816,17.6615282 38.8130415,17.6766482 C40.1824816,16.6830482 41.4482416,15.3006481 43.1524817,14.8686481 C43.9754417,14.6656081 44.8135218,14.0046481 45.6796818,13.7584081 C46.6417668,13.4699142 47.617909,13.2305647 48.6043219,13.041288 C49.5433761,12.8389895 50.4994929,12.7261648 51.459842,12.704328 C51.9393621,12.704328 52.3108821,10.7041679 52.5744021,10.2700079 C52.9891221,9.5831279 53.4232821,8.66512786 54.2181622,8.31088785 C54.7970422,8.05384784 54.8229622,8.23744784 55.1577622,8.81632787 C55.3796589,9.21336063 55.5405788,9.64150938 55.6351222,10.0864079 C56.1297622,9.46432789 57.2421623,9.03880788 58.0240823,8.84656787 C58.3866944,8.72194899 58.7761835,8.69732612 59.1516024,8.77528786 C59.6397624,8.88328787 59.3006424,9.7429679 59.2488024,10.1771279 C60.5448024,10.0540079 62.1604825,11.334888 62.7415225,12.421368 L62.4499225,12.583368 Z" id="Shape" fill="#231F20" fill-rule="nonzero"></path>
                <path d="M79.4188832,32.1745688 L82.0562433,32.1745688 L82.0562433,47.8475294 C82.0562433,50.6224095 81.8136033,52.6607296 81.3283232,53.9624897 C80.8871962,55.1902127 80.1678601,56.2991584 79.2266431,57.2024898 C78.2708246,58.0926382 77.1370792,58.7699407 75.900243,59.1896899 C74.5237275,59.6620014 73.0764828,59.8950509 71.6212828,59.8787299 C66.3206426,59.8787299 62.8293625,57.7633698 61.1474424,53.5326496 L63.9770425,53.5326496 C65.4544826,56.1822497 67.9644027,57.5077698 71.5068028,57.5092098 C73.2132029,57.5092098 74.697123,57.1772898 75.958563,56.5134498 C77.2200031,55.8496097 78.1120831,55.0021697 78.6348031,53.9711297 C79.1546431,52.9415296 79.4152832,51.3301696 79.4167232,49.1370495 L79.4167232,48.2579294 C78.4334438,49.5109455 77.1617991,50.50766 75.710163,51.1631295 C74.2917188,51.7982191 72.7542027,52.1236894 71.2000828,52.1178496 C68.2452027,52.1178496 65.7864026,51.1098495 63.8236825,49.0938495 C61.8609625,47.0778494 60.8824824,44.7126493 60.8882171,41.9982492 C60.8882171,39.1686491 61.9329625,36.735049 64.0224025,34.6974489 C66.0328762,32.692165 68.7713859,31.5891217 71.6104828,31.6410488 C74.578323,31.6410488 77.1832831,32.9910488 79.4253632,35.6910489 L79.4188832,32.1745688 Z M79.5355232,41.9982492 C79.5355232,39.7820891 78.7838431,37.922329 77.2804831,36.418969 C75.777123,34.9156089 73.9166429,34.1632089 71.6990428,34.1617689 C69.3547228,34.1617689 67.4056827,34.9710489 65.8519226,36.589609 C64.2981626,38.208169 63.5205625,40.0621691 63.5191225,42.1516092 C63.4876426,44.1670685 64.3071207,46.1024484 65.7763226,47.4824894 C67.2768027,48.9498495 69.1999227,49.6835295 71.5456828,49.6835295 C73.8914429,49.6835295 75.810963,48.9692895 77.3042431,47.5408094 C78.7917631,46.1137693 79.5355232,44.2662493 79.5355232,41.9982492 L79.5355232,41.9982492 Z" id="Shape" fill="#FFFFFF" fill-rule="nonzero"></path>
                <polygon id="Path" fill="#FFFFFF" fill-rule="nonzero" points="86.7218434 24.3402485 89.3138435 24.3402485 89.3138435 52.4720896 86.7218434 52.4720896"></polygon>
                <path d="M93.5236837,42.4561692 C93.474856,39.5969015 94.5851189,36.8395537 96.6016838,34.8119289 C98.5667098,32.7848432 101.269374,31.6406736 104.092564,31.6406736 C106.915754,31.6406736 109.618418,32.7848432 111.583444,34.8119289 C115.672054,39.0451573 115.689215,45.7512712 111.622324,50.0053695 C109.596244,52.1092096 107.092804,53.1604096 104.112004,53.1589711 C101.131204,53.1575296 98.6212839,52.1063296 96.5822438,50.0053695 C94.5844653,48.0056744 93.4811668,45.2824905 93.5236837,42.4561692 L93.5236837,42.4561692 Z M112.024084,42.4950492 C112.049962,40.3154082 111.203888,38.2157758 109.674004,36.663049 C108.110164,35.0228889 106.248244,34.2020889 104.088244,34.200647 C101.928244,34.1992089 100.074244,35.0207289 98.5262439,36.665209 C97.0013288,38.2346414 96.1628811,40.3459133 96.1956038,42.5339292 C96.148324,44.6813738 96.9600452,46.7588825 98.4506439,48.3054494 C99.8914526,49.8613377 101.929289,50.7261602 104.049364,50.6814495 C106.187979,50.717135 108.242007,49.8470368 109.704244,48.2860094 C111.227551,46.7479942 112.064242,44.6593831 112.024084,42.4950492 Z" id="Shape" fill="#FFFFFF" fill-rule="nonzero"></path>
                <path d="M119.439365,52.4720896 L119.439365,24.3402485 L121.998965,24.3402485 L121.998965,35.6543289 C124.218005,32.9773688 126.932405,31.6396088 130.142165,31.6410488 C132.942984,31.596517 135.631113,32.7427398 137.538005,34.7946489 C141.612665,39.0478662 141.586881,45.7641227 137.479685,49.9859295 C135.416165,52.1027296 132.944405,53.1604096 130.064405,53.1589711 C126.854645,53.1589711 124.166165,51.6808096 121.998965,48.7244895 L121.998965,52.4720896 L119.439365,52.4720896 Z M121.847763,42.1883292 C121.847763,44.5600093 122.625365,46.5608894 124.180565,48.1909694 C125.666392,49.7587102 127.733561,50.6434485 129.893524,50.6361334 C132.053486,50.6287271 134.114578,49.7299204 135.589685,48.1520894 C137.116104,46.5970922 137.961572,44.4989639 137.939765,42.3200892 C137.964907,40.1513319 137.141753,38.058567 135.645845,36.488089 C134.189318,34.8627786 132.095115,33.9553433 129.913205,34.0040889 C127.619285,34.0040889 125.701205,34.7809689 124.158965,36.334729 C122.616725,37.888489 121.846325,39.8396891 121.847763,42.1883292 Z" id="Shape" fill="#FFFFFF" fill-rule="nonzero"></path>
                <path d="M165.268087,32.1745688 L165.268087,52.4785696 L162.706326,52.4785696 L162.706326,48.9923295 C160.387926,51.7700896 157.738326,53.1589696 154.757526,53.1589696 C151.899037,53.2162193 149.150798,52.0564625 147.197526,49.9686495 C145.190944,47.9496092 144.082231,45.2074142 144.121686,42.3611292 C144.080418,39.5246778 145.198351,36.7942058 147.216966,34.8011289 C149.279046,32.6972888 151.750806,31.6460888 154.632246,31.6475273 C157.944246,31.6475273 160.632006,33.0616088 162.695526,35.8897689 L162.695526,32.1745688 L165.268087,32.1745688 Z M162.859686,42.4194492 C162.859686,40.0996091 162.082806,38.143369 160.529046,36.550729 C159.044246,34.987993 156.971101,34.1211126 154.815846,34.1617689 C152.644895,34.1251218 150.562986,35.0236631 149.100486,36.628489 C145.970945,39.8928243 145.988132,45.0490901 149.139366,48.2924894 C150.723366,49.9355295 152.615526,50.7570495 154.815846,50.7570495 C156.954976,50.7831591 159.009603,49.9231556 160.492326,48.3810494 C162.069126,46.8013694 162.858246,44.8141693 162.859686,42.4194492 Z" id="Shape" fill="#FFFFFF" fill-rule="nonzero"></path>
                <polygon id="Path" fill="#FFFFFF" fill-rule="nonzero" points="170.503927 24.3402485 173.095927 24.3402485 173.095927 52.4720896 170.503927 52.4720896"></polygon>
                <path d="M56.9764823,63.9676101 L59.6160024,63.9676101 L59.6160024,79.6405707 C59.6160024,82.4168908 59.3733624,84.4552109 58.8880823,85.7555309 C58.446329,86.9834624 57.7262419,88.0924261 56.7842423,88.9955311 C55.829213,89.8856297 54.6961805,90.5629461 53.4600021,90.9827311 C52.0823446,91.4532322 50.6345806,91.6855172 49.178882,91.6696112 C43.8782417,91.6696112 40.3869616,89.5549711 38.7050415,85.3256909 L41.5346417,85.3256909 C43.0120817,87.975291 45.5220018,89.3008111 49.0644019,89.3022511 C50.770802,89.3022511 52.2547221,88.9703311 53.5161621,88.306491 C54.7776022,87.642651 55.6696822,86.795931 56.1924022,85.7663309 C56.7136823,84.7338509 56.9743223,83.1217708 56.9743223,80.9300907 L56.9743223,80.0509707 C55.9910429,81.3039868 54.7193982,82.3007013 53.2677621,82.9561708 C51.8493179,83.5912603 50.3118018,83.9167307 48.7576819,83.9108909 C45.8028018,83.9108909 43.3440017,82.9028908 41.3812816,80.8868907 C39.4185616,78.8708906 38.4372015,76.5013706 38.4372015,73.7783304 C38.4372015,70.9487303 39.4819216,68.5151302 41.5713617,66.4775302 C43.5816154,64.4716664 46.3200762,63.3678632 49.159442,63.41897 C52.1272821,63.41897 54.7322422,64.7704101 56.9743223,67.4732902 L56.9764823,63.9676101 Z M57.0931223,73.7912904 C57.0931223,71.5751304 56.3414422,69.7146503 54.8380822,68.2098502 C53.3347221,66.7050502 51.474242,65.9540901 49.256642,65.9569619 C46.9137619,65.9569619 44.9647218,66.7655302 43.4095217,68.3826502 C41.8543217,69.9997703 41.0767216,71.8537704 41.0767216,73.9446505 C41.0463185,75.9598998 41.86562,77.8948626 43.3339217,79.2755307 C44.8372818,80.7400107 46.7604019,81.4722508 49.103282,81.4722508 C51.446162,81.4722508 53.3642421,80.7587307 54.8575222,79.3316907 C56.3479222,77.9060906 57.0931223,76.0592905 57.0931223,73.7912904 Z" id="Shape" fill="#FFFFFF" fill-rule="nonzero"></path>
                <path d="M84.8815234,63.9676101 L84.8815234,84.2716109 L82.3176033,84.2716109 L82.3176033,80.7875307 C80.0006432,83.5681708 77.3510431,84.9570509 74.368803,84.9541709 C71.510314,85.0114206 68.7620751,83.8516638 66.8088027,81.7638508 C64.8022206,79.7448105 63.6935081,77.0026155 63.7329625,74.1563305 C63.691695,71.3198791 64.8096283,68.5894071 66.8282427,66.5963302 C68.8903227,64.4924901 71.3620828,63.44057 74.243523,63.44057 C77.5555231,63.44057 80.2432832,64.8553701 82.3068033,67.6849702 L82.3068033,63.9676101 L84.8815234,63.9676101 Z M82.4709633,74.2124905 C82.4709633,71.8926504 81.6940832,69.9371303 80.1403232,68.3459302 C78.6561433,66.7822945 76.5825824,65.9152403 74.427123,65.9569701 C72.2565086,65.9197718 70.1746529,66.8175032 68.7117627,68.4215302 C65.5855892,71.6872119 65.6027677,76.8407626 68.7506427,80.0855307 C70.3346428,81.7285708 72.2268029,82.5500908 74.427123,82.5500908 C76.5662532,82.5762003 78.6208798,81.7161968 80.1036032,80.1740907 C81.6818432,78.5958506 82.4709633,76.6086506 82.4709633,74.2124905 L82.4709633,74.2124905 Z" id="Shape" fill="#FFFFFF" fill-rule="nonzero"></path>
                <path d="M89.5060836,63.9676101 L92.1823237,63.9676101 L92.1823237,66.9116902 C92.9023237,65.7121701 93.5964037,64.8330501 94.2645637,64.2743301 C94.8909989,63.7323562 95.6912594,63.4334083 96.5196038,63.43193 C97.3988488,63.4467452 98.2600521,63.6837804 99.0230439,64.1209701 L97.6471239,66.3371302 C97.2909752,66.115717 96.8806351,65.9968753 96.4612838,65.9936901 C95.6707238,65.9936901 94.9255238,66.4019302 94.2256837,67.2184102 C93.4743326,68.135761 92.9450526,69.21428 92.6791237,70.3698503 C92.3464837,71.6572104 92.1808837,73.9950505 92.1823237,77.3833706 L92.1823237,84.2651309 L89.5060836,84.2651309 L89.5060836,63.9676101 Z" id="Path" fill="#FFFFFF" fill-rule="nonzero"></path>
                <path d="M121.994645,56.1311297 L121.994645,84.2651309 L119.435045,84.2651309 L119.435045,80.7875307 C117.115205,83.5681708 114.458405,84.9570509 111.464644,84.9541754 C108.470884,84.9512909 105.954484,83.8936108 103.915444,81.7811308 C101.912027,79.7606641 100.8065,77.0186454 100.848244,74.1736105 C100.803218,71.3284131 101.922073,68.5882335 103.945684,66.5876902 C106.007764,64.4838501 108.479524,63.43193 111.360964,63.43193 C114.672965,63.43193 117.361445,64.8467301 119.426405,67.6763302 L119.426405,56.1311297 L121.994645,56.1311297 Z M119.586247,74.2492105 C119.586247,71.9308104 118.822325,69.9688103 117.294485,68.3632102 C115.766645,66.7576102 113.855045,65.9555301 111.559684,65.9569701 C109.379344,65.91164 107.28564,66.8100666 105.816244,68.4215302 C102.712616,71.6888952 102.737387,76.8223506 105.872404,80.0596107 C107.456404,81.7156108 109.323364,82.5436108 111.473284,82.5436108 C113.623205,82.5436108 115.515365,81.7602508 117.149765,80.1935307 C118.775525,78.6282506 119.587685,76.6468106 119.586247,74.2492105 Z" id="Shape" fill="#FFFFFF" fill-rule="nonzero"></path>
                <path d="M144.737286,77.6900906 L146.953446,78.8435306 C144.763206,82.9187308 141.527526,84.9570509 137.246405,84.9584909 C134.187845,84.9584909 131.667845,83.9072909 129.686405,81.8048908 C127.704965,79.7024907 126.711365,77.1738506 126.705605,74.2189705 C126.656903,71.385536 127.736179,68.6488843 129.705845,66.6114502 C131.706005,64.4975301 134.177765,63.43985 137.121125,63.4384085 C140.064486,63.43697 142.535526,64.4183301 144.534246,66.3824902 C146.535846,68.3466502 147.574806,71.0221703 147.651126,74.4090505 L129.371045,74.4090505 C129.448805,76.8570506 130.219925,78.8255306 131.684405,80.3144907 C133.071376,81.7724814 135.0054,82.5832206 137.017445,82.5500908 C140.456166,82.5457708 143.029446,80.9257707 144.737286,77.6900906 Z M144.737286,72.1475304 C144.380166,70.2121703 143.488086,68.6958502 142.061046,67.5985702 C140.650573,66.5088027 138.911983,65.9300341 137.129765,65.9569701 C133.308005,65.9569701 130.811045,68.0204902 129.638885,72.1475304 L144.737286,72.1475304 Z" id="Shape" fill="#FFFFFF" fill-rule="nonzero"></path>
                <path d="M152.230326,63.9676101 L154.865526,63.9676101 L154.865526,67.5985702 C156.956406,64.8222501 159.492246,63.43337 162.473046,63.43193 C163.943891,63.4142929 165.384703,63.8485721 166.600807,64.6760901 C167.783849,65.4568385 168.690793,66.5905191 169.192807,67.9160902 C169.702567,69.2538503 169.957447,71.2223303 169.957447,73.8215304 L169.957447,84.2651309 L167.376247,84.2651309 L167.376247,74.5948105 C167.376247,72.2260104 167.267527,70.6204103 167.050087,69.7780103 C166.865831,69.0050626 166.527925,68.2770942 166.056487,67.6374502 C165.614102,67.05315 165.028648,66.5926722 164.356567,66.3004102 C163.563327,65.9742594 162.710457,65.8182556 161.853126,65.8424901 C160.84186,65.8454089 159.84641,66.0937155 158.952246,66.5660902 C158.007695,67.0523391 157.184588,67.7447827 156.543846,68.5921702 C155.920201,69.3836585 155.465181,70.294434 155.206806,71.2684103 C154.976406,72.1871304 154.861206,74.0346505 154.861206,76.8109706 L154.861206,84.2651309 L152.226006,84.2651309 L152.230326,63.9676101 Z" id="Path" fill="#FFFFFF" fill-rule="nonzero"></path>
                <path d="M185.483527,66.1837701 L183.800887,67.9117702 C182.399767,66.5596102 181.036087,65.8835301 179.709847,65.8835301 C178.903233,65.8585706 178.11932,66.152732 177.528247,66.7021702 C176.956129,67.2178029 176.635474,67.956019 176.649127,68.7260902 C176.644884,69.5178563 176.986471,70.2720286 177.584407,70.7910503 C178.210807,71.3670504 179.290807,72.0553704 180.824407,72.8560104 C182.358007,73.6566504 183.523687,74.5206505 184.321447,75.4480105 C185.132128,76.4017101 185.559392,77.6226859 185.520247,78.8737707 C185.554923,80.4988836 184.909793,82.0647312 183.740407,83.1937708 C182.585031,84.3546004 181.00377,84.9902282 179.366407,84.9520109 C178.219538,84.9523913 177.087726,84.6908631 176.057287,84.1873709 C175.009539,83.686061 174.088731,82.9542882 173.363767,82.0468108 L175.007527,80.2129707 C176.358247,81.7163308 177.773047,82.4680108 179.251927,82.4680108 C180.244809,82.4876843 181.205764,82.1169527 181.928167,81.4355308 C182.631133,80.8254095 183.035297,79.9406608 183.036247,79.0098507 C183.062939,78.1399266 182.70782,77.3018445 182.064247,76.7159306 C181.414807,76.1154505 180.334807,75.4336105 178.824247,74.6704105 C177.313687,73.9072105 176.176087,73.0727304 175.411447,72.1669704 C174.662647,71.2612103 174.288247,70.0890503 174.288247,68.6504902 C174.27107,67.2518279 174.847135,65.9113379 175.873687,64.9612101 C176.932087,63.9431301 178.333927,63.43337 180.079207,63.4319283 C181.824487,63.43049 183.625927,64.3477701 185.483527,66.1837701 Z" id="Path" fill="#FFFFFF" fill-rule="nonzero"></path>
            </g>
        </g>
    </g>
</svg>