<?xml version="1.0" encoding="UTF-8"?>
<svg width="62px" height="57px" viewBox="0 0 62 57" version="1.1" xmlns="http://www.w3.org/2000/svg" xmlns:xlink="http://www.w3.org/1999/xlink">
    <!-- Generator: sketchtool 59.1 (101010) - https://sketch.com -->
    <title>0DF9A11A-38B2-4259-82E8-B4FC3F848D4E</title>
    <desc>Created with sketchtool.</desc>
    <g id="full-site" stroke="none" stroke-width="1" fill="none" fill-rule="evenodd">
        <g id="Community-hub" transform="translate(-323.000000, -777.000000)" fill="#673D1A" fill-rule="nonzero">
            <g id="newspaper" transform="translate(323.000000, 777.000000)">
                <path d="M58.33875,0 L13.3870313,0 C11.6770313,0 10.28625,1.39125 10.28625,3.10125 L10.28625,7.80890628 L3.10125,7.80890628 C1.39125,7.80890628 5.68434189e-14,9.20015628 5.68434189e-14,10.9101563 L5.68434189e-14,50.8148437 C5.68434189e-14,54.13125 2.68734372,56.8321874 5.99953128,56.8560937 L6.01171872,56.8560937 C6.0225,56.8565626 6.03234372,56.8575 6.043125,56.8575 L37.8801563,56.8575 C38.3770313,56.8575 38.7801563,56.4548437 38.7801563,55.9575 C38.7801563,55.460625 38.3770313,55.0575 37.8801563,55.0575 L10.3420313,55.0575 C11.4196874,53.9657813 12.08625,52.4667187 12.08625,50.8148437 L12.08625,29.7684374 C12.08625,29.2715626 11.683125,28.8684374 11.18625,28.8684374 C10.6889063,28.8684374 10.28625,29.2715626 10.28625,29.7684374 L10.28625,50.8148437 C10.28625,53.1464063 8.39531256,55.044375 6.06609372,55.0570313 C6.05859372,55.0570313 6.05109372,55.0560937 6.043125,55.0560937 C3.70359372,55.055625 1.8,53.1529687 1.8,50.8148437 L1.8,10.9101563 C1.8,10.1929687 2.38359372,9.60890628 3.10125,9.60890628 L10.28625,9.60890628 L10.28625,26.4084374 C10.28625,26.9057813 10.6889063,27.3084374 11.18625,27.3084374 C11.683125,27.3084374 12.08625,26.9057813 12.08625,26.4084374 L12.08625,3.10125 C12.08625,2.38359372 12.6698437,1.8 13.3870313,1.8 L58.33875,1.8 C59.0564063,1.8 59.64,2.38359372 59.64,3.10125 L59.64,50.8148437 C59.64,53.154375 57.7364063,55.0575 55.396875,55.0575 L41.2401563,55.0575 C40.7428126,55.0575 40.3401563,55.460625 40.3401563,55.9575 C40.3401563,56.4548437 40.7428126,56.8575 41.2401563,56.8575 L55.396875,56.8575 C58.7292187,56.8575 61.44,54.1467187 61.44,50.8148437 L61.44,3.10125 C61.44,1.39125 60.04875,0 58.33875,0 L58.33875,0 Z" id="Path"></path>
                <path d="M19.7184374,35.9114063 L32.0620313,35.9114063 C33.23625,35.9114063 34.1915626,34.9560937 34.1915626,33.781875 L34.1915626,21.4382813 C34.1915626,20.2640626 33.23625,19.30875 32.0620313,19.30875 L19.7184374,19.30875 C18.5442187,19.30875 17.5889063,20.2640626 17.5889063,21.4382813 L17.5889063,33.781875 C17.5889063,34.9560937 18.5442187,35.9114063 19.7184374,35.9114063 L19.7184374,35.9114063 Z M19.3889063,21.4382813 C19.3889063,21.2564063 19.5365626,21.10875 19.7184374,21.10875 L32.0620313,21.10875 C32.2434374,21.10875 32.3915626,21.2564063 32.3915626,21.4382813 L32.3915626,33.781875 C32.3915626,33.9632813 32.2434374,34.1114063 32.0620313,34.1114063 L19.7184374,34.1114063 C19.5365626,34.1114063 19.3889063,33.9632813 19.3889063,33.781875 L19.3889063,21.4382813 Z" id="Shape"></path>
                <path d="M37.4629687,21.10875 L54.166875,21.10875 C54.66375,21.10875 55.066875,20.7060937 55.066875,20.20875 C55.066875,19.7114063 54.66375,19.30875 54.166875,19.30875 L37.4629687,19.30875 C36.9660937,19.30875 36.5629687,19.7114063 36.5629687,20.20875 C36.5629687,20.7060937 36.9660937,21.10875 37.4629687,21.10875 L37.4629687,21.10875 Z" id="Path"></path>
                <path d="M37.4629687,28.5103126 L54.166875,28.5103126 C54.66375,28.5103126 55.066875,28.1071874 55.066875,27.6103126 C55.066875,27.1129687 54.66375,26.7103126 54.166875,26.7103126 L37.4629687,26.7103126 C36.9660937,26.7103126 36.5629687,27.1129687 36.5629687,27.6103126 C36.5629687,28.1071874 36.9660937,28.5103126 37.4629687,28.5103126 L37.4629687,28.5103126 Z" id="Path"></path>
                <path d="M37.4629687,35.9114063 L54.166875,35.9114063 C54.66375,35.9114063 55.066875,35.5082813 55.066875,35.0114063 C55.066875,34.5140626 54.66375,34.1114063 54.166875,34.1114063 L37.4629687,34.1114063 C36.9660937,34.1114063 36.5629687,34.5140626 36.5629687,35.0114063 C36.5629687,35.5082813 36.9660937,35.9114063 37.4629687,35.9114063 L37.4629687,35.9114063 Z" id="Path"></path>
                <path d="M18.4889063,43.3125 L54.166875,43.3125 C54.66375,43.3125 55.066875,42.9098437 55.066875,42.4125 C55.066875,41.915625 54.66375,41.5125 54.166875,41.5125 L18.4889063,41.5125 C17.9920313,41.5125 17.5889063,41.915625 17.5889063,42.4125 C17.5889063,42.9098437 17.9920313,43.3125 18.4889063,43.3125 Z" id="Path"></path>
                <path d="M18.4889063,50.7140626 L54.166875,50.7140626 C54.66375,50.7140626 55.066875,50.3114063 55.066875,49.8140626 C55.066875,49.3167187 54.66375,48.9140626 54.166875,48.9140626 L18.4889063,48.9140626 C17.9920313,48.9140626 17.5889063,49.3167187 17.5889063,49.8140626 C17.5889063,50.3114063 17.9920313,50.7140626 18.4889063,50.7140626 Z" id="Path"></path>
                <path d="M17.611875,14.7032813 L17.611875,5.19328128 C17.611875,4.99781256 17.7046874,4.84875 17.8903126,4.74656256 C18.0759374,4.64390628 18.3009374,4.59234372 18.564375,4.59234372 C18.9164063,4.59234372 19.1845313,4.65609372 19.370625,4.783125 C19.5557813,4.91015628 19.7610937,5.18390628 19.9860937,5.60343744 L22.8140626,11.0695313 L22.8140626,5.17875 C22.8140626,4.98328128 22.906875,4.83703128 23.0925,4.73906256 C23.2776563,4.64156256 23.5026563,4.59234372 23.7665626,4.59234372 C24.0304687,4.59234372 24.255,4.64156256 24.440625,4.73906256 C24.62625,4.83703128 24.7190626,4.98328128 24.7190626,5.17875 L24.7190626,14.7032813 C24.7190626,14.889375 24.6234374,15.035625 24.433125,15.1429687 C24.2428126,15.2507813 24.020625,15.3042187 23.7665626,15.3042187 C23.2485937,15.3042187 22.8820313,15.1040626 22.6673437,14.7032813 L19.516875,8.8125 L19.516875,14.7032813 C19.516875,14.889375 19.4217187,15.035625 19.2314063,15.1429687 C19.0410937,15.2507813 18.8184374,15.3042187 18.564375,15.3042187 C18.3009374,15.3042187 18.0759374,15.2507813 17.8907813,15.1429687 C17.7046874,15.035625 17.611875,14.889375 17.611875,14.7032813 Z" id="Path"></path>
                <path d="M26.4773437,14.7032813 L26.4773437,5.19328128 C26.4773437,5.00765628 26.5603126,4.86140628 26.7267187,4.75359372 C26.8926563,4.64625 27.0876563,4.59234372 27.3126563,4.59234372 L32.529375,4.59234372 C32.724375,4.59234372 32.8739063,4.67578128 32.9760937,4.84171872 C33.07875,5.00765628 33.1303126,5.19843744 33.1303126,5.413125 C33.1303126,5.6475 33.0764063,5.848125 32.9690626,6.01406256 C32.86125,6.18046872 32.7145313,6.26296872 32.529375,6.26296872 L28.3823437,6.26296872 L28.3823437,9.19359372 L30.6098437,9.19359372 C30.795,9.19359372 30.9417187,9.26953128 31.0495313,9.42093744 C31.156875,9.57234372 31.2107813,9.75046872 31.2107813,9.95578128 C31.2107813,10.1414063 31.1592187,10.3096874 31.0565626,10.4615626 C30.9539063,10.6129687 30.8053126,10.6884374 30.6098437,10.6884374 L28.3823437,10.6884374 L28.3823437,13.6340626 L32.529375,13.6340626 C32.7145313,13.6340626 32.86125,13.7170313 32.9690626,13.8829687 C33.0764063,14.049375 33.1303126,14.2495313 33.1303126,14.4839063 C33.1303126,14.6985937 33.07875,14.889375 32.9760937,15.0553126 C32.8739063,15.2217187 32.724375,15.3042187 32.529375,15.3042187 L27.3126563,15.3042187 C27.0876563,15.3042187 26.8926563,15.2507813 26.7267187,15.1434374 C26.5603126,15.035625 26.4773437,14.889375 26.4773437,14.7032813 L26.4773437,14.7032813 Z" id="Path"></path>
                <path d="M34.0828126,5.35453128 C34.0828126,5.14921872 34.2145313,4.97109372 34.4784374,4.81968744 C34.741875,4.66828128 35.015625,4.59234372 35.29875,4.59234372 C35.6507813,4.59234372 35.8607813,4.719375 35.92875,4.97343744 L38.244375,12.9159374 L39.4898437,7.81640628 C39.5775,7.464375 39.8901563,7.28859372 40.4273437,7.28859372 C40.9551563,7.28859372 41.2626563,7.464375 41.3507813,7.81640628 L42.59625,12.9159374 L44.9114063,4.97343744 C44.9798437,4.719375 45.1898437,4.59234372 45.541875,4.59234372 C45.825,4.59234372 46.0982813,4.66828128 46.3621874,4.81968744 C46.6260937,4.97109372 46.7578126,5.14921872 46.7578126,5.35453128 C46.7578126,5.413125 46.7479687,5.47171872 46.72875,5.53031256 L43.8271874,14.7473437 C43.6804687,15.1776563 43.2651563,15.3923437 42.5817187,15.3923437 C42.28875,15.3923437 42.0248437,15.3360937 41.7904687,15.2235937 C41.5560937,15.1115626 41.4140626,14.9526563 41.3653126,14.7473437 L40.4278126,10.7910937 L39.4753126,14.7473437 C39.4260937,14.9526563 39.2845313,15.1115626 39.0501563,15.2235937 C38.8157813,15.3360937 38.551875,15.3923437 38.2589063,15.3923437 C37.9560937,15.3923437 37.6875,15.3360937 37.453125,15.2235937 C37.2182813,15.1115626 37.0720313,14.9526563 37.0134374,14.7473437 L34.111875,5.53031256 C34.0921874,5.47171872 34.0828126,5.413125 34.0828126,5.35453128 L34.0828126,5.35453128 Z" id="Path"></path>
                <path d="M47.2415626,13.6190626 C47.2415626,13.3945313 47.326875,13.1671874 47.4979687,12.9375 C47.6685937,12.7082813 47.8617187,12.5934374 48.076875,12.5934374 C48.2034374,12.5934374 48.3478126,12.654375 48.5090626,12.77625 C48.6703126,12.8976563 48.8264063,13.0326563 48.9778126,13.179375 C49.1292187,13.3265626 49.3467187,13.4610937 49.6303126,13.5829687 C49.9134374,13.7048437 50.2260937,13.7653126 50.5678126,13.7653126 C51.0370313,13.7653126 51.4275,13.6579687 51.7401563,13.4428126 C52.0528126,13.228125 52.2089063,12.9107813 52.2089063,12.4907813 C52.2089063,12.1973437 52.1235937,11.93625 51.9525,11.7065626 C51.781875,11.4773437 51.556875,11.2865626 51.2784374,11.1351563 C51.0004687,10.98375 50.6948437,10.8370313 50.3629687,10.6954687 C50.030625,10.5539063 49.6959374,10.395 49.3589063,10.2192187 C49.021875,10.0434374 48.714375,9.845625 48.4359374,9.62578128 C48.1575,9.40593744 47.9325,9.11296872 47.761875,8.74640628 C47.5907813,8.38031256 47.5054687,7.96265628 47.5054687,7.49390628 C47.5054687,6.96843744 47.6104687,6.504375 47.8204687,6.103125 C48.0304687,5.70140628 48.31125,5.38921872 48.6628126,5.16609372 C49.014375,4.94296872 49.3903126,4.779375 49.7910937,4.67531256 C50.1914063,4.57125 50.6165626,4.51875 51.0660937,4.51875 C51.3196874,4.51875 51.5882813,4.53656256 51.871875,4.57171872 C52.155,4.606875 52.4554687,4.66453128 52.7732813,4.74468744 C53.090625,4.82484372 53.349375,4.95046872 53.5495313,5.120625 C53.7496874,5.29125 53.85,5.491875 53.85,5.72296872 C53.85,5.94046872 53.7815626,6.16546872 53.6451563,6.39796872 C53.5082813,6.63046872 53.3226563,6.74625 53.0882813,6.74625 C53.0001563,6.74625 52.760625,6.65343744 52.3701563,6.46781256 C51.9792187,6.28218744 51.5446874,6.189375 51.0660937,6.189375 C50.5382813,6.189375 50.1304687,6.28968744 49.8426563,6.48984372 C49.554375,6.69046872 49.41,6.96609372 49.41,7.31765628 C49.41,7.60125 49.5271874,7.84781256 49.7620313,8.05781256 C49.9964063,8.26781256 50.2870313,8.43890628 50.6339063,8.570625 C50.9803126,8.70234372 51.3567187,8.86875 51.7621874,9.06890628 C52.1671874,9.26906256 52.5435937,9.48656256 52.8904687,9.72093744 C53.236875,9.95531256 53.5279687,10.2946874 53.7623437,10.7390626 C53.9967187,11.1839063 54.1139063,11.7042187 54.1139063,12.3 C54.1139063,13.3017187 53.79375,14.0751563 53.154375,14.619375 C52.5140626,15.1635937 51.6717187,15.4359374 50.6264063,15.4359374 C49.6982813,15.4359374 48.9023437,15.2451563 48.238125,14.8640626 C47.5734374,14.4839063 47.2415626,14.0685937 47.2415626,13.6190626 L47.2415626,13.6190626 Z" id="Path"></path>
            </g>
        </g>
    </g>
</svg>