<?xml version="1.0" encoding="UTF-8"?>
<svg width="60px" height="60px" viewBox="0 0 60 60" version="1.1" xmlns="http://www.w3.org/2000/svg" xmlns:xlink="http://www.w3.org/1999/xlink">
    <!-- Generator: sketchtool 59.1 (101010) - https://sketch.com -->
    <title>3A395F2C-A026-4A9A-BA2F-D3669E7E599C</title>
    <desc>Created with sketchtool.</desc>
    <g id="full-site" stroke="none" stroke-width="1" fill="none" fill-rule="evenodd">
        <g id="Community-hub" transform="translate(-464.000000, -775.000000)" fill="#673D1A" fill-rule="nonzero">
            <g id="process" transform="translate(464.000000, 775.000000)">
                <path d="M59.52,49.7048437 L59.52,42.4542187 L56.7426563,41.7445313 C56.7234374,41.6976563 56.7042187,41.6507813 56.6840626,41.604375 L58.1460937,39.1401563 L53.0189063,34.0129687 L50.5546874,35.475 C50.5073437,35.4548437 50.4604687,35.435625 50.4145313,35.4164063 L49.7048437,32.64 L42.4542187,32.64 L41.7445313,35.4173437 C41.6976563,35.4365626 41.6507813,35.4557813 41.604375,35.4759374 L39.1401563,34.0139063 L34.0129687,39.1410937 L35.475,41.6053126 C35.4548437,41.6526563 35.435625,41.6995313 35.4164063,41.7454687 L32.64,42.4551563 L32.64,49.7057813 L35.4173437,50.4154687 C35.4365626,50.4623437 35.4557813,50.5092187 35.4759374,50.555625 L34.0139063,53.0198437 L39.1410937,58.1470313 L41.6053126,56.685 C41.6526563,56.7051563 41.6995313,56.724375 41.7454687,56.7435937 L42.4551563,59.52 L49.7057813,59.52 L50.4154687,56.7426563 C50.4623437,56.7234374 50.5092187,56.7042187 50.555625,56.6840626 L53.0198437,58.1460937 L58.1470313,53.0189063 L56.685,50.5546874 C56.7051563,50.5073437 56.724375,50.4604687 56.7435937,50.4145313 L59.52,49.7048437 Z M55.7348437,52.7165626 L52.7165626,55.7348437 L50.6648437,54.5175 L50.203125,54.7382813 C49.9054687,54.879375 49.60125,55.006875 49.288125,55.1175 L48.804375,55.2890626 L48.2151563,57.6 L43.9457813,57.6 L43.3565626,55.2890626 L42.8728126,55.1175 C42.5596874,55.0078126 42.2545313,54.8803126 41.9578126,54.7382813 L41.4960937,54.5175 L39.444375,55.7348437 L36.4260937,52.7165626 L37.6434374,50.6648437 L37.4226563,50.203125 C37.2815626,49.9054687 37.1540626,49.60125 37.0434374,49.288125 L36.871875,48.804375 L34.56,48.2151563 L34.56,43.9457813 L36.8709374,43.3565626 L37.0425,42.8728126 C37.1521874,42.5596874 37.2796874,42.2545313 37.4217187,41.9578126 L37.6425,41.4960937 L36.4251563,39.444375 L39.4434374,36.4260937 L41.4951563,37.6434374 L41.956875,37.4226563 C42.2545313,37.2815626 42.55875,37.1540626 42.871875,37.0434374 L43.355625,36.871875 L43.9448437,34.56 L48.2142187,34.56 L48.8034374,36.8709374 L49.2871874,37.0425 C49.6003126,37.1521874 49.9054687,37.2796874 50.2021874,37.4217187 L50.6639063,37.6425 L52.715625,36.4251563 L55.7339063,39.4434374 L54.5165626,41.4951563 L54.7373437,41.956875 C54.8784374,42.2545313 55.0059374,42.55875 55.1165626,42.871875 L55.288125,43.355625 L57.6,43.9448437 L57.6,48.2142187 L55.2890626,48.8034374 L55.1175,49.2871874 C55.0078126,49.6003126 54.8803126,49.9054687 54.7382813,50.2021874 L54.5175,50.6639063 L55.7348437,52.7165626 Z" id="Shape"></path>
                <path d="M46.08,38.4 C41.8453126,38.4 38.4,41.8453126 38.4,46.08 C38.4,50.3146874 41.8453126,53.76 46.08,53.76 C50.3146874,53.76 53.76,50.3146874 53.76,46.08 C53.76,41.8453126 50.3146874,38.4 46.08,38.4 Z M46.08,51.84 C42.9032813,51.84 40.32,49.2567187 40.32,46.08 C40.32,42.9032813 42.9032813,40.32 46.08,40.32 C49.2567187,40.32 51.84,42.9032813 51.84,46.08 C51.84,49.2567187 49.2567187,51.84 46.08,51.84 Z" id="Shape"></path>
                <path d="M46.08,42.24 C43.9621874,42.24 42.24,43.9621874 42.24,46.08 C42.24,48.1978126 43.9621874,49.92 46.08,49.92 C48.1978126,49.92 49.92,48.1978126 49.92,46.08 C49.92,43.9621874 48.1978126,42.24 46.08,42.24 Z M46.08,48 C45.0210937,48 44.16,47.1389063 44.16,46.08 C44.16,45.0210937 45.0210937,44.16 46.08,44.16 C47.1389063,44.16 48,45.0210937 48,46.08 C48,47.1389063 47.1389063,48 46.08,48 Z" id="Shape"></path>
                <path d="M24.3121874,16.2548437 C24.63375,17.1975 25.1934374,18.0285937 25.92,18.6815626 L25.92,19.4957813 L21.3553126,21.2071874 C19.4920313,21.9051563 18.24,23.71125 18.24,25.7010937 L18.24,30.72 L41.28,30.72 L41.28,25.7010937 C41.28,23.71125 40.0279687,21.9051563 38.165625,21.20625 L33.6,19.4948437 L33.6,18.6815626 C34.3265626,18.0295313 34.88625,17.1984374 35.2078126,16.2548437 C37.0167187,15.9445313 38.4,14.3751563 38.4,12.48 L38.4,8.64 C38.4,3.87656256 34.524375,0 29.76,0 C24.995625,0 21.12,3.87656256 21.12,8.64 L21.12,12.48 C21.12,14.3751563 22.5032813,15.9445313 24.3121874,16.2548437 Z M31.68,19.8942187 L29.76,23.0939063 L27.84,19.8942187 L27.84,19.8239063 C28.441875,20.038125 29.0859374,20.16 29.76,20.16 C30.4340626,20.16 31.078125,20.0371874 31.68,19.8239063 L31.68,19.8942187 Z M26.4679687,21.3398437 L28.4034374,24.564375 L26.480625,25.5253126 L25.2384374,21.800625 L26.4679687,21.3398437 Z M39.36,25.7010937 L39.36,28.8 L20.16,28.8 L20.16,25.7010937 C20.16,24.5067187 20.9109374,23.4239063 22.0289063,23.004375 L23.4403126,22.475625 L25.359375,28.23375 L29.76,26.0334374 L34.160625,28.23375 L36.0796874,22.475625 L37.4920313,23.0053126 C38.6090626,23.4239063 39.36,24.5067187 39.36,25.7010937 Z M34.2815626,21.800625 L33.039375,25.52625 L31.1165626,24.5653126 L33.0520313,21.3398437 L34.2815626,21.800625 Z M29.76,18.24 C27.6421874,18.24 25.92,16.5178126 25.92,14.4 L25.92,10.4948437 C27.3253126,10.3467187 28.6514063,9.834375 29.76,8.9625 C30.8685937,9.83531256 32.1946874,10.3467187 33.6,10.4948437 L33.6,14.4 C33.6,16.5178126 31.8778126,18.24 29.76,18.24 Z M35.52,14.1332813 L35.52,10.8276563 C36.0914063,11.1609374 36.48,11.7735937 36.48,12.4809374 C36.48,13.1882813 36.0914063,13.8 35.52,14.1332813 Z M29.76,1.92 C33.4645313,1.92 36.48,4.93453128 36.48,8.64 L36.48,9.17390628 C35.9128126,8.84343744 35.2626563,8.64 34.56,8.64 L34.395,8.64 C32.9001563,8.64 31.4948437,8.05828128 30.43875,7.00125 L29.76,6.32156256 L29.08125,7.00125 C28.0242187,8.05828128 26.6198437,8.64 25.125,8.64 L24.96,8.64 C24.2573437,8.64 23.6071874,8.84343744 23.04,9.17390628 L23.04,8.64 C23.04,4.93453128 26.0554687,1.92 29.76,1.92 Z M24,10.8267187 L24,14.1323437 C23.4285937,13.7990626 23.04,13.1864063 23.04,12.4790626 C23.04,11.7717187 23.4285937,11.16 24,10.8267187 Z" id="Shape"></path>
                <path d="M0,59.52 L19.2,59.52 L19.2,34.56 L0,34.56 L0,59.52 Z M1.92,36.48 L17.28,36.48 L17.28,57.6 L1.92,57.6 L1.92,36.48 Z" id="Shape"></path>
                <polygon id="Path" points="3.84 38.4 15.36 38.4 15.36 40.32 3.84 40.32"></polygon>
                <polygon id="Path" points="3.84 42.24 5.76 42.24 5.76 44.16 3.84 44.16"></polygon>
                <polygon id="Path" points="7.68 42.24 15.36 42.24 15.36 44.16 7.68 44.16"></polygon>
                <polygon id="Path" points="3.84 46.08 15.36 46.08 15.36 48 3.84 48"></polygon>
                <polygon id="Path" points="3.84 49.92 15.36 49.92 15.36 51.84 3.84 51.84"></polygon>
                <polygon id="Path" points="13.44 53.76 15.36 53.76 15.36 55.68 13.44 55.68"></polygon>
                <polygon id="Path" points="3.84 53.76 11.52 53.76 11.52 55.68 3.84 55.68"></polygon>
                <polygon id="Path" points="25.63875 42.91875 24.28125 41.56125 19.7625 46.08 24.28125 50.59875 25.63875 49.24125 23.4375 47.04 30.72 47.04 30.72 45.12 23.4375 45.12"></polygon>
                <path d="M10.56,15.36 C10.56,14.83125 10.9903126,14.4 11.52,14.4 L15.9225,14.4 L13.72125,16.60125 L15.07875,17.95875 L19.5975,13.44 L15.07875,8.92125 L13.72125,10.27875 L15.9225,12.48 L11.52,12.48 C9.93234372,12.48 8.64,13.7723437 8.64,15.36 L8.64,32.64 L10.56,32.64 L10.56,15.36 Z" id="Path"></path>
                <path d="M46.08,15.36 L46.08,27.4425 L43.87875,25.24125 L42.52125,26.59875 L47.04,31.1175 L51.55875,26.59875 L50.20125,25.24125 L48,27.4425 L48,15.36 C48,13.7723437 46.7076563,12.48 45.12,12.48 L40.32,12.48 L40.32,14.4 L45.12,14.4 C45.6496874,14.4 46.08,14.83125 46.08,15.36 Z" id="Path"></path>
            </g>
        </g>
    </g>
</svg>